<svg height="512pt" viewBox="-60 0 512 512.001" width="512pt" xmlns="http://www.w3.org/2000/svg"><path d="m356.34375 504.5h-320.710938c-15.535156 0-28.128906-12.59375-28.128906-28.128906v-440.742188c0-15.535156 12.59375-28.128906 28.128906-28.128906h320.710938c15.535156 0 28.128906 12.59375 28.128906 28.128906v440.742188c0 15.535156-12.59375 28.128906-28.128906 28.128906zm0 0" fill="#ff6b81"/><path d="m384.480469 35.632812v440.734376c0 15.535156-12.597657 28.136718-28.136719 28.136718h-27.160156c15.527344 0 28.125-12.601562 28.125-28.136718v-440.734376c0-15.535156-12.597656-28.132812-28.125-28.132812h27.160156c15.539062 0 28.136719 12.597656 28.136719 28.132812zm0 0" fill="#ff435f"/><path d="m384.480469 35.632812v34.425782h-376.980469v-34.425782c0-15.535156 12.597656-28.132812 28.132812-28.132812h320.710938c15.539062 0 28.136719 12.597656 28.136719 28.132812zm0 0" fill="#80e0dc"/><path d="m384.480469 476.367188v-34.425782h-376.980469v34.425782c0 15.535156 12.597656 28.132812 28.132812 28.132812h320.710938c15.539062 0 28.136719-12.597656 28.136719-28.132812zm0 0" fill="#80e0dc"/><path d="m384.480469 35.632812v34.425782h-27.171875v-34.425782c0-15.535156-12.597656-28.132812-28.125-28.132812h27.160156c15.539062 0 28.136719 12.597656 28.136719 28.132812zm0 0" fill="#00a8b0"/><path d="m357.308594 441.941406h27.171875v34.425782c0 15.535156-12.597657 28.132812-28.136719 28.132812h-27.160156c15.527344 0 28.125-12.597656 28.125-28.132812zm0 0" fill="#00a8b0"/><path d="m233.128906 211.863281c1.785156 1.664063 4.058594 2.777344 6.542969 3.136719l52.855469 7.683594c9.964844 1.445312 13.945312 13.691406 6.734375 20.71875l-38.25 37.285156c-2.859375 2.789062-4.167969 6.8125-3.492188 10.753906l9.027344 52.644532c1.703125 9.921874-8.714844 17.492187-17.625 12.804687l-47.277344-24.855469c-3.539062-1.859375-7.765625-1.859375-11.308593 0l-47.277344 24.855469c-8.910156 4.6875-19.328125-2.882813-17.625-12.804687l9.027344-52.644532c.675781-3.941406-.628907-7.964844-3.492188-10.753906l-38.25-37.285156c-7.207031-7.027344-3.230469-19.273438 6.734375-20.71875l52.859375-7.683594c3.957031-.574219 7.378906-3.058594 9.144531-6.644531l23.640625-47.898438c4.457032-9.027343 17.332032-9.027343 21.789063 0l6.410156 12.992188" fill="#ffd86e"/><path d="m213.296875 173.453125 17.226563 34.902344c.65625 1.335937 1.546874 2.519531 2.605468 3.507812" fill="#ffd86e"/><path d="m261.015625 280.683594c-2.867187 2.789062-4.171875 6.8125-3.5 10.753906l9.027344 52.648438c1.703125 9.921874-8.707031 17.492187-17.625 12.808593l-.300781-.160156c.371093-1.785156.421874-3.6875.082031-5.675781l-11.164063-65.117188c-.832031-4.875.78125-9.839844 4.324219-13.289062l47.300781-46.121094c1.234375-1.203125 2.199219-2.527344 2.917969-3.921875l.453125.070313c9.960938 1.457031 13.941406 13.703124 6.730469 20.722656zm0 0" fill="#ffb509"/><path d="m333.695312 7.5h-84.6875v117.257812c0 6.347657 7.054688 10.148438 12.355469 6.65625l25.601563-16.871093c2.660156-1.753907 6.109375-1.753907 8.769531 0l25.601563 16.871093c5.300781 3.492188 12.359374-.308593 12.359374-6.65625zm0 0" fill="#ffd86e"/><path d="m333.695312 7.5v117.261719c0 6.34375-7.058593 10.140625-12.359374 6.652343l-5.136719-3.386718v-120.527344zm0 0" fill="#ffb509"/><path d="m293.605469 215.261719-52.859375-7.679688c-1.511719-.222656-2.820313-1.171875-3.5-2.546875-1.832032-3.710937-6.328125-5.238281-10.042969-3.402344-3.714844 1.832032-5.238281 6.328126-3.40625 10.042969 2.863281 5.796875 8.394531 9.816407 14.792969 10.746094l52.859375 7.679687c2.582031.375 3.484375 2.339844 3.753906 3.164063.269531.828125.691406 2.949219-1.175781 4.769531l-38.25 37.28125c-4.628906 4.515625-6.742188 11.015625-5.648438 17.390625l9.027344 52.644531c.441406 2.570313-1.144531 4.039063-1.847656 4.546876-.703125.511718-2.589844 1.570312-4.898438.355468l-47.277344-24.855468c-5.722656-3.011719-12.558593-3.007813-18.285156 0l-47.277344 24.855468c-2.308593 1.214844-4.191406.15625-4.898437-.351562-.703125-.511719-2.289063-1.976563-1.847656-4.550782l9.027343-52.640624c1.09375-6.375-1.019531-12.878907-5.648437-17.394532l-38.25-37.28125c-1.867187-1.820312-1.445313-3.941406-1.175781-4.765625.265625-.828125 1.171875-2.792969 3.753906-3.167969l52.855469-7.679687c6.402343-.929687 11.933593-4.945313 14.792969-10.746094l23.640624-47.898437c1.15625-2.339844 3.300782-2.59375 4.171876-2.59375.867187 0 3.011718.253906 4.167968 2.59375l2.757813 5.585937c1.832031 3.714844 6.328125 5.238281 10.042969 3.40625 3.714843-1.832031 5.238281-6.328125 3.40625-10.042969l-2.757813-5.589843c-3.332031-6.753907-10.085937-10.949219-17.617187-10.949219-7.535157 0-14.285157 4.195312-17.621094 10.949219l-23.636719 47.898437c-.679687 1.371094-1.988281 2.324219-3.503906 2.542969l-52.855469 7.683594c-7.457031 1.082031-13.535156 6.207031-15.863281 13.371093-2.328125 7.164063-.421875 14.882813 4.972656 20.140626l38.25 37.28125c1.09375 1.070312 1.59375 2.609374 1.335937 4.117187l-9.027343 52.644531c-1.273438 7.425782 1.71875 14.789063 7.816406 19.214844 3.441406 2.503906 7.472656 3.773438 11.527344 3.773438 3.125 0 6.261719-.75 9.164062-2.277344l47.277344-24.855469c1.355469-.710937 2.972656-.710937 4.328125 0l47.273438 24.855469c6.667968 3.503906 14.597656 2.933594 20.691406-1.496094 6.097656-4.425781 9.089844-11.789062 7.820312-19.214844l-9.03125-52.644531c-.257812-1.507813.242188-3.046875 1.335938-4.117187l38.25-37.28125c5.394531-5.257813 7.300781-12.976563 4.972656-20.140626-2.332031-7.164062-8.410156-12.289062-15.863281-13.371093zm0 0"/><path d="m391.976562 70.058594v-34.425782c0-19.648437-15.984374-35.632812-35.632812-35.632812h-320.710938c-19.648437 0-35.632812 15.984375-35.632812 35.632812v34.425782c0 .03125.00390625.0625.00390625.097656v371.691406c0 .03125-.00390625.0625-.00390625.09375 0 .035156.00390625.066406.00390625.097656v34.332032c0 19.648437 15.98437475 35.628906 35.62890575 35.628906h28.960938c4.140625 0 7.496094-3.355469 7.496094-7.496094 0-4.144531-3.355469-7.5-7.496094-7.5h-28.960938c-11.375 0-20.628906-9.257812-20.628906-20.632812v-26.929688h361.972656v26.929688c0 11.375-9.253906 20.632812-20.632812 20.632812h-244.609375c-4.140625 0-7.496094 3.355469-7.496094 7.5 0 4.140625 3.355469 7.496094 7.496094 7.496094h244.609375c19.648438 0 35.628906-15.980469 35.628906-35.628906v-34.332032c0-.03125.007813-.0625.007813-.097656 0-.03125-.003907-.0625-.007813-.09375v-371.691406c0-.035156.003906-.066406.003906-.097656zm-135.46875-55.0625h69.6875v109.761718c0 .125 0 .28125-.246093.417969-.25.132813-.378907.046875-.484375-.023437l-25.601563-16.871094c-2.585937-1.703125-5.550781-2.554688-8.511719-2.554688-2.964843 0-5.929687.851563-8.511718 2.554688l-25.601563 16.871094c-.105469.070312-.234375.15625-.484375.023437-.25-.136719-.25-.292969-.25-.417969v-109.761718zm-241.503906 20.632812c0-10.664062 8.132813-19.464844 18.523438-20.523437.695312-.074219 1.398437-.109375 2.109375-.109375h205.871093v47.5625h-226.503906zm361.972656 398.8125h-361.972656v-356.882812h226.503906v47.199218c0 5.699219 3.117188 10.917969 8.132813 13.621094 5.015625 2.699219 11.089844 2.429688 15.847656-.703125l25.601563-16.871093c.160156-.105469.363281-.105469.519531 0l25.601563 16.871093c2.578124 1.695313 5.539062 2.554688 8.511718 2.554688 2.515625 0 5.035156-.613281 7.335938-1.851563 5.015625-2.703125 8.132812-7.921875 8.132812-13.621094v-47.199218h35.785156zm0-371.882812h-35.785156v-47.5625h15.152344c.710938 0 1.414062.039062 2.105469.109375 10.390625 1.058593 18.527343 9.859375 18.527343 20.523437zm0 0"/></svg>