<svg height="512pt" viewBox="-1 0 512 512.00086" width="512pt" xmlns="http://www.w3.org/2000/svg"><path d="m483.367188 504.523438h-338.523438c-10.695312 0-19.363281-8.671876-19.363281-19.367188v-338.523438c0-10.695312 8.667969-19.363281 19.363281-19.363281h338.523438c10.695312 0 19.363281 8.667969 19.363281 19.363281v338.523438c.003906 10.695312-8.667969 19.367188-19.363281 19.367188zm0 0" fill="#e7e7e7"/><path d="m502.730469 146.632812v338.527344c0 10.691406-8.671875 19.359375-19.359375 19.359375h-24.222656c10.6875 0 19.359374-8.667969 19.359374-19.359375v-338.527344c0-10.691406-8.671874-19.363281-19.359374-19.363281h24.222656c10.6875 0 19.359375 8.671875 19.359375 19.363281zm0 0" fill="#cecece"/><path d="m502.734375 193.335938h-377.253906v-46.703126c0-10.695312 8.667969-19.363281 19.363281-19.363281h338.523438c10.695312 0 19.363281 8.667969 19.363281 19.363281v46.703126zm0 0" fill="#64dcfc"/><path d="m502.730469 146.632812v46.703126h-24.222657v-46.703126c0-10.691406-8.671874-19.363281-19.359374-19.363281h24.222656c10.6875 0 19.359375 8.671875 19.359375 19.363281zm0 0" fill="#00d1fc"/><path d="m446.285156 355.96875h-265.40625c-7 0-12.675781-5.675781-12.675781-12.675781v-107.308594c0-7 5.675781-12.675781 12.675781-12.675781h265.40625c7 0 12.671875 5.675781 12.671875 12.675781v107.308594c.003907 7-5.671875 12.675781-12.671875 12.675781zm0 0" fill="#c9f0ff"/><path d="m458.960938 235.980469v107.308593c0 7.003907-5.671876 12.679688-12.675782 12.679688h-20.761718c7.003906 0 12.679687-5.675781 12.679687-12.679688v-107.308593c0-6.992188-5.675781-12.667969-12.679687-12.667969h20.761718c7.003906 0 12.675782 5.675781 12.675782 12.667969zm0 0" fill="#9ae7fd"/><path d="m254.328125 476.417969h-73.445313c-7 0-12.675781-5.675781-12.675781-12.675781v-65.230469c0-7.003907 5.675781-12.679688 12.675781-12.679688h73.445313c7.003906 0 12.679687 5.675781 12.679687 12.679688v65.230469c0 7-5.675781 12.675781-12.679687 12.675781zm0 0" fill="#ff6b81"/><path d="m267.011719 398.511719v65.226562c0 7.003907-5.675781 12.679688-12.679688 12.679688h-20.007812c7.003906 0 12.675781-5.675781 12.675781-12.679688v-65.226562c0-7.003907-5.671875-12.679688-12.675781-12.679688h20.007812c7.003907 0 12.679688 5.675781 12.679688 12.679688zm0 0" fill="#ff435f"/><path d="m188.40625 355.195312 88.308594-88.269531c2.09375-2.09375 5.523437-1.992187 7.492187.222657l78.125 88.046874zm0 0" fill="#80e0dc"/><path d="m297.972656 355.195312 70.75-70.714843c2.09375-2.09375 5.523438-1.992188 7.492188.222656l62.546875 70.488281h-140.789063zm0 0" fill="#80e0dc"/><path d="m206.816406 107.144531c0-54.699219-44.066406-99.109375-98.640625-99.664062-54.714843-.550781-100.070312 43.792969-100.691406 98.507812-.484375 42.882813 26.113281 79.617188 63.753906 94.160157 3.664063 1.414062 6.097657 4.910156 6.097657 8.839843v23.769531h59.625v-23.773437c0-3.90625 2.402343-7.414063 6.046874-8.820313 37.328126-14.394531 63.808594-50.613281 63.808594-93.019531zm0 0" fill="#ffd86e"/><path d="m206.816406 107.144531c0 42.402344-26.484375 78.621094-63.8125 93.023438-3.644531 1.40625-6.046875 4.910156-6.046875 8.820312v23.765625h-13.984375v-30.503906c0-3.945312 2.445313-7.484375 6.140625-8.855469 39.375-14.628906 67.332031-48.066406 67.332031-92.742187 0-28.949219-11.734374-55.152344-30.703124-74.128906 24.894531 18.113281 41.074218 47.480468 41.074218 80.621093zm0 0" fill="#ffb509"/><path d="m111.453125 273.273438h-8.613281c-14.085938 0-25.503906-11.417969-25.503906-25.507813v-15.007813h59.625v15.007813c0 14.089844-11.421876 25.507813-25.507813 25.507813zm0 0" fill="#acacac"/><path d="m136.957031 232.753906v15.011719c0 14.085937-11.414062 25.507813-25.5 25.507813h-8.617187c-.910156 0-1.800782-.046876-2.683594-.140626 12.820312-1.339843 22.816406-12.191406 22.816406-25.367187v-15.011719zm0 0" fill="#9c9c9c"/><path d="m180.882812 483.898438h73.445313c11.113281 0 20.15625-9.042969 20.15625-20.15625v-65.230469c0-11.117188-9.042969-20.15625-20.15625-20.15625h-73.445313c-11.113281 0-20.15625 9.039062-20.15625 20.15625v65.230469c0 11.113281 9.042969 20.15625 20.15625 20.15625zm4.164063-14.957032 32.558594-28.820312 32.5625 28.820312zm74.480469-65.921875v54.234375l-30.640625-27.117187zm-11.597656-9.707031-30.324219 26.835938-30.324219-26.835938zm-72.246094 9.703125 30.640625 27.121094-30.640625 27.117187zm0 0"/><path d="m345.414062 381.445312h-45.890624c-4.132813 0-7.480469 3.347657-7.480469 7.476563s3.347656 7.476563 7.480469 7.476563h45.890624c4.128907 0 7.476563-3.347657 7.476563-7.476563s-3.347656-7.476563-7.476563-7.476563zm0 0"/><path d="m391.304688 396.398438c4.132812 0 7.480468-3.347657 7.480468-7.476563s-3.347656-7.476563-7.480468-7.476563h-17.765626c-4.128906 0-7.476562 3.347657-7.476562 7.476563s3.347656 7.476563 7.476562 7.476563zm0 0"/><path d="m459.148438 381.445312h-41.902344c-4.128906 0-7.480469 3.347657-7.480469 7.476563s3.351563 7.476563 7.480469 7.476563h41.902344c4.128906 0 7.476562-3.347657 7.476562-7.476563s-3.347656-7.476563-7.476562-7.476563zm0 0"/><path d="m299.523438 425.320312h29.257812c4.132812 0 7.480469-3.347656 7.480469-7.476562 0-4.132812-3.347657-7.480469-7.480469-7.480469h-29.257812c-4.132813 0-7.480469 3.347657-7.480469 7.480469 0 4.128906 3.347656 7.476562 7.480469 7.476562zm0 0"/><path d="m341.757812 417.84375c0 4.128906 3.347657 7.476562 7.476563 7.476562h53.046875c4.128906 0 7.476562-3.347656 7.476562-7.476562 0-4.132812-3.347656-7.480469-7.476562-7.480469h-53.046875c-4.128906 0-7.476563 3.347657-7.476563 7.480469zm0 0"/><path d="m459.148438 410.363281h-32.285157c-4.128906 0-7.476562 3.347657-7.476562 7.480469 0 4.128906 3.347656 7.476562 7.476562 7.476562h32.285157c4.128906 0 7.476562-3.347656 7.476562-7.476562 0-4.132812-3.347656-7.480469-7.476562-7.480469zm0 0"/><path d="m299.523438 451.925781h37.074218c4.128906 0 7.476563-3.347656 7.476563-7.476562 0-4.128907-3.347657-7.476563-7.476563-7.476563h-37.074218c-4.132813 0-7.480469 3.347656-7.480469 7.476563 0 4.128906 3.347656 7.476562 7.480469 7.476562zm0 0"/><path d="m430.582031 444.449219c0-4.128907-3.347656-7.476563-7.480469-7.476563h-62.816406c-4.132812 0-7.480468 3.347656-7.480468 7.476563 0 4.128906 3.347656 7.476562 7.480468 7.476562h62.816406c4.132813 0 7.480469-3.347656 7.480469-7.476562zm0 0"/><path d="m459.148438 436.972656h-14.417969c-4.132813 0-7.480469 3.347656-7.480469 7.476563 0 4.128906 3.347656 7.476562 7.480469 7.476562h14.417969c4.128906 0 7.476562-3.347656 7.476562-7.476562 0-4.128907-3.347656-7.476563-7.476562-7.476563zm0 0"/><path d="m363.371094 465.890625h-63.847656c-4.132813 0-7.480469 3.347656-7.480469 7.476563 0 4.132812 3.347656 7.480468 7.480469 7.480468h63.847656c4.132812 0 7.480468-3.347656 7.480468-7.480468 0-4.128907-3.347656-7.476563-7.480468-7.476563zm0 0"/><path d="m412.804688 465.890625h-27.804688c-4.132812 0-7.480469 3.347656-7.480469 7.476563 0 4.132812 3.347657 7.480468 7.480469 7.480468h27.804688c4.128906 0 7.476562-3.347656 7.476562-7.480468 0-4.128907-3.347656-7.476563-7.476562-7.476563zm0 0"/><path d="m459.148438 465.890625h-26.777344c-4.128906 0-7.476563 3.347656-7.476563 7.476563 0 4.132812 3.347657 7.480468 7.476563 7.480468h26.777344c4.128906 0 7.476562-3.347656 7.476562-7.480468 0-4.128907-3.347656-7.476563-7.476562-7.476563zm0 0"/><path d="m180.878906 363.445312h265.40625c11.113282 0 20.152344-9.039062 20.152344-20.152343v-107.308594c0-11.113281-9.039062-20.152344-20.152344-20.152344h-47.601562c-4.128906 0-7.476563 3.347657-7.476563 7.476563 0 4.132812 3.347657 7.480468 7.476563 7.480468h47.601562c2.867188 0 5.195313 2.328126 5.195313 5.195313v107.308594c0 2.867187-2.328125 5.195312-5.195313 5.195312h-3.476562l-61.003906-68.746093c-2.296876-2.59375-5.601563-4.136719-9.066407-4.242188-3.445312-.109375-6.855469 1.242188-9.304687 3.691406l-31.027344 31.011719-42.605469-48.019531c-2.300781-2.589844-5.605469-4.132813-9.066406-4.238282-3.472656-.09375-6.855469 1.242188-9.304687 3.691407l-86.894532 86.851562h-3.65625c-2.863281 0-5.195312-2.332031-5.195312-5.195312v-107.308594c0-2.867187 2.332031-5.195313 5.195312-5.195313h170.28125c4.128906 0 7.476563-3.347656 7.476563-7.480468 0-4.128906-3.347657-7.476563-7.476563-7.476563h-170.28125c-11.113281 0-20.152344 9.039063-20.152344 20.152344v107.308594c0 11.113281 9.039063 20.152343 20.152344 20.152343zm99.375-89.484374 58.175782 65.5625c2.738281 3.089843 7.464843 3.371093 10.554687.628906 3.089844-2.738282 3.371094-7.464844.632813-10.554688l-7.265626-8.1875 29.90625-29.894531 50.554688 56.972656h-217.121094zm0 0"/><path d="m483.367188 119.789062h-269.816407c.492188-4.171874.742188-8.390624.742188-12.644531 0-28.425781-11.015625-55.203125-31.019531-75.398437-19.988282-20.183594-46.632813-31.453125-75.019532-31.74218775-16.542968-.15234425-32.507812 3.39843775-47.40625 10.60156275-3.71875 1.796875-5.277344 6.269531-3.480468 9.988281 1.796874 3.71875 6.269531 5.273438 9.988281 3.476562 12.804687-6.1875 26.503906-9.242187 40.746093-9.109374 24.421876.246093 47.347657 9.945312 64.546876 27.308593 17.210937 17.378907 26.6875 40.417969 26.6875 64.875 0 18.992188-5.722657 37.226563-16.558594 52.730469-10.59375 15.167969-25.277344 26.6875-42.460938 33.316406-6.480468 2.5-10.835937 8.847656-10.835937 15.792969v16.296875h-14.855469v-59.914062l3.667969 3.1875c2.8125 2.449218 7 2.449218 9.8125 0l16.054687-13.957032c3.117188-2.710937 3.449219-7.433594.738282-10.550781-2.707032-3.117187-7.433594-3.445313-10.550782-.738281l-11.148437 9.695312-11.148438-9.695312c-2.8125-2.445313-6.996093-2.445313-9.8125 0l-11.144531 9.691406-11.144531-9.691406c-3.117188-2.710938-7.839844-2.378906-10.550781.738281-2.710938 3.113281-2.382813 7.839844.734374 10.550781l16.050782 13.957032c1.410156 1.222656 3.160156 1.835937 4.910156 1.835937s3.5-.613281 4.90625-1.835937l3.667969-3.191407v59.917969h-14.855469v-16.292969c0-7.054687-4.269531-13.261719-10.878906-15.816406-35.707032-13.796875-59.40625-48.796875-58.972656-87.097656.226562-19.855469 6.753906-38.742188 18.871093-54.613281 2.507813-3.285157 1.878907-7.976563-1.402343-10.484376-3.28125-2.503906-7.976563-1.875-10.484376 1.40625-14.089843 18.453126-21.675781 40.417969-21.9374995 63.523438-.2539065 22.304688 6.2812495 43.757812 18.9023435 62.039062 12.316406 17.84375 29.480469 31.390626 49.632813 39.179688.796875.308594 1.3125 1.039062 1.3125 1.863281v38.78125c0 18.1875 14.796875 32.984375 32.984375 32.984375h8.613281c2.242187 0 4.429687-.226562 6.550781-.65625v205.058594c0 14.800781 12.039063 26.84375 26.839844 26.84375h338.523438c14.800781 0 26.84375-12.042969 26.84375-26.84375v-338.523438c0-14.800781-12.042969-26.84375-26.84375-26.84375zm-353.882813 127.976563c0 9.941406-8.089844 18.03125-18.03125 18.03125h-8.613281c-9.9375 0-18.027344-8.089844-18.027344-18.03125v-7.527344h44.671875zm365.769531 237.390625c0 6.554688-5.332031 11.886719-11.886718 11.886719h-338.523438c-6.554688 0-11.886719-5.332031-11.886719-11.886719v-212.410156c7.023438-6.054688 11.480469-15.003906 11.480469-24.980469v-38.78125c0-.824219.496094-1.546875 1.261719-1.839844 4.671875-1.800781 9.175781-3.925781 13.503906-6.332031h336.050781zm0-299.300781h-315.398437c5.625-5.203125 10.722656-11.027344 15.183593-17.414063 7.21875-10.335937 12.476563-21.710937 15.660157-33.695312h272.667969c6.554687 0 11.886718 5.332031 11.886718 11.886718zm0 0"/></svg>