<svg height="512pt" viewBox="0 -28 512 512" width="512pt" xmlns="http://www.w3.org/2000/svg"><path d="m475.359375 379.230469h-438.71875v-277.535157c0-12.4375 10.082031-22.519531 22.523437-22.519531h393.671876c12.4375 0 22.523437 10.082031 22.523437 22.519531zm0 0" fill="#e7e7e7"/><path d="m475.363281 101.699219v277.53125h-27.125v-277.53125c0-12.445313-10.082031-22.527344-22.523437-22.527344h27.121094c12.433593.003906 22.527343 10.082031 22.527343 22.527344zm0 0" fill="#cecece"/><path d="m435.863281 379.230469h-359.726562v-256.203125c0-4.582032 3.714843-8.296875 8.296875-8.296875h343.132812c4.582032 0 8.296875 3.714843 8.296875 8.296875zm0 0" fill="#c9f0ff"/><path d="m435.863281 123.027344v256.203125h-26.316406v-256.203125c0-4.578125-3.714844-8.300782-8.300781-8.300782h26.316406c4.589844 0 8.300781 3.722657 8.300781 8.300782zm0 0" fill="#9ae7fd"/><path d="m479.960938 448.796875h-447.921876c-13.558593 0-24.546874-10.988281-24.546874-24.542969v-45.023437h497.015624v45.023437c0 13.554688-10.988281 24.542969-24.546874 24.542969zm0 0" fill="#838383"/><path d="m504.507812 379.230469v45.023437c0 13.550782-10.984374 24.546875-24.546874 24.546875h-22.4375c13.554687 0 24.539062-10.996093 24.539062-24.546875v-45.023437zm0 0" fill="#5a5a5a"/><path d="m272.097656 379.230469h-99.601562l11.761718 26.914062c.800782 1.832031 2.609376 3.015625 4.609376 3.015625h134.265624c2 0 3.808594-1.183594 4.609376-3.015625l11.761718-26.914062zm0 0" fill="#acacac"/><path d="m339.503906 379.230469-11.761718 26.914062c-.804688 1.832031-2.605469 3.019531-4.609376 3.019531h-16.226562c.160156-.253906.3125-.515624.433594-.796874l12.726562-29.136719zm0 0" fill="#9c9c9c"/><path d="m371.761719 263.03125h-231.527344c-14.269531 0-25.835937-11.566406-25.835937-25.839844v-203.863281c0-14.269531 11.566406-25.835937 25.835937-25.835937h231.527344c14.269531 0 25.839843 11.566406 25.839843 25.835937v203.863281c0 14.273438-11.566406 25.839844-25.839843 25.839844zm0 0" fill="#e7e7e7"/><path d="m397.601562 33.328125v203.867187c0 14.265626-11.570312 25.835938-25.835937 25.835938h-19.867187c14.265624 0 25.835937-11.570312 25.835937-25.835938v-203.867187c0-14.265625-11.570313-25.835937-25.835937-25.835937h19.867187c14.269531 0 25.835937 11.570312 25.835937 25.835937zm0 0" fill="#cecece"/><path d="m397.601562 71.210938h-283.203124v-37.882813c0-14.269531 11.566406-25.835937 25.835937-25.835937h231.527344c14.269531 0 25.839843 11.566406 25.839843 25.835937zm0 0" fill="#80e0dc"/><path d="m397.601562 33.328125v37.875h-19.867187v-37.875c0-14.265625-11.570313-25.835937-25.835937-25.835937h19.867187c14.269531 0 25.835937 11.570312 25.835937 25.835937zm0 0" fill="#00a8b0"/><path d="m356.101562 159.578125h-200.203124c-2.78125 0-5.03125-2.253906-5.03125-5.03125v-48.796875c0-2.777344 2.25-5.027344 5.03125-5.027344h200.207031c2.777343 0 5.027343 2.25 5.027343 5.027344v48.796875c0 2.777344-2.25 5.03125-5.03125 5.03125zm0 0" fill="#ffd86e"/><path d="m356.101562 159.578125h-14.660156v-58.859375h14.660156c2.78125 0 5.03125 2.253906 5.03125 5.03125v48.796875c0 2.777344-2.25 5.03125-5.03125 5.03125zm0 0" fill="#ffb509"/><path d="m155.898438 167.070312h200.207031c6.902343 0 12.523437-5.621093 12.523437-12.523437v-48.796875c0-6.90625-5.617187-12.523438-12.523437-12.523438h-43.429688c-4.136719 0-7.492187 3.355469-7.492187 7.492188 0 4.140625 3.355468 7.496094 7.492187 7.496094h40.964844v43.871094h-195.28125v-43.871094h107.316406c4.136719 0 7.492188-3.355469 7.492188-7.496094 0-4.136719-3.355469-7.492188-7.492188-7.492188h-109.777343c-6.90625 0-12.523438 5.617188-12.523438 12.523438v48.796875c-.003906 6.90625 5.617188 12.523437 12.523438 12.523437zm0 0"/><path d="m149.886719 200.101562h28.523437c4.140625 0 7.492188-3.355468 7.492188-7.496093 0-4.136719-3.351563-7.492188-7.492188-7.492188h-28.523437c-4.140625 0-7.492188 3.355469-7.492188 7.492188 0 4.140625 3.351563 7.496093 7.492188 7.496093zm0 0"/><path d="m362.113281 185.113281h-28.523437c-4.140625 0-7.492188 3.355469-7.492188 7.496094 0 4.136719 3.351563 7.492187 7.492188 7.492187h28.523437c4.140625 0 7.492188-3.355468 7.492188-7.492187 0-4.140625-3.351563-7.496094-7.492188-7.496094zm0 0"/><path d="m273.167969 192.605469c0-4.136719-3.355469-7.492188-7.492188-7.492188h-64.671875c-4.136718 0-7.492187 3.355469-7.492187 7.492188 0 4.140625 3.355469 7.496093 7.492187 7.496093h64.671875c4.136719 0 7.492188-3.355468 7.492188-7.496093zm0 0"/><path d="m317.152344 192.605469c0-4.136719-3.351563-7.492188-7.492188-7.492188h-21.914062c-4.136719 0-7.492188 3.355469-7.492188 7.492188 0 4.140625 3.355469 7.496093 7.492188 7.496093h21.914062c4.140625 0 7.492188-3.355468 7.492188-7.496093zm0 0"/><path d="m149.886719 231.925781h12.148437c4.140625 0 7.496094-3.355469 7.496094-7.492187 0-4.136719-3.355469-7.492188-7.496094-7.492188h-12.148437c-4.140625 0-7.492188 3.355469-7.492188 7.492188 0 4.136718 3.351563 7.492187 7.492188 7.492187zm0 0"/><path d="m184.945312 216.941406c-4.140624 0-7.496093 3.355469-7.496093 7.492188 0 4.136718 3.355469 7.492187 7.496093 7.492187h36.34375c4.140626 0 7.492188-3.355469 7.492188-7.492187 0-4.136719-3.351562-7.492188-7.492188-7.492188zm0 0"/><path d="m303.8125 231.925781h57.238281c4.136719 0 7.492188-3.355469 7.492188-7.492187 0-4.136719-3.355469-7.492188-7.492188-7.492188h-57.238281c-4.136719 0-7.492188 3.355469-7.492188 7.492188 0 4.136718 3.355469 7.492187 7.492188 7.492187zm0 0"/><path d="m243.132812 231.925781h38.546876c4.136718 0 7.492187-3.355469 7.492187-7.492187 0-4.136719-3.355469-7.492188-7.492187-7.492188h-38.546876c-4.136718 0-7.492187 3.355469-7.492187 7.492188 0 4.136718 3.355469 7.492187 7.492187 7.492187zm0 0"/><path d="m115.78125 311.773438h102.363281c4.140625 0 7.496094-3.355469 7.496094-7.492188s-3.355469-7.492188-7.496094-7.492188h-102.363281c-4.140625 0-7.496094 3.355469-7.496094 7.492188s3.355469 7.492188 7.496094 7.492188zm0 0"/><path d="m245.816406 311.773438h42.484375c4.136719 0 7.492188-3.355469 7.492188-7.492188s-3.355469-7.492188-7.492188-7.492188h-42.484375c-4.136718 0-7.492187 3.355469-7.492187 7.492188s3.355469 7.492188 7.492187 7.492188zm0 0"/><path d="m308.75 304.28125c0 4.136719 3.355469 7.492188 7.492188 7.492188h79.976562c4.140625 0 7.496094-3.355469 7.496094-7.492188s-3.355469-7.492188-7.496094-7.492188h-79.976562c-4.136719 0-7.492188 3.355469-7.492188 7.492188zm0 0"/><path d="m167.1875 327.703125h-51.40625c-4.140625 0-7.496094 3.355469-7.496094 7.492187 0 4.140626 3.355469 7.496094 7.496094 7.496094h51.402344c4.140625 0 7.496094-3.355468 7.496094-7.496094 0-4.136718-3.355469-7.492187-7.492188-7.492187zm0 0"/><path d="m316.242188 327.703125h-113.125c-4.136719 0-7.492188 3.355469-7.492188 7.492187 0 4.140626 3.355469 7.496094 7.492188 7.496094h113.125c4.136718 0 7.492187-3.355468 7.492187-7.496094 0-4.136718-3.355469-7.492187-7.492187-7.492187zm0 0"/><path d="m396.21875 327.703125h-56.714844c-4.136718 0-7.492187 3.355469-7.492187 7.492187 0 4.140626 3.355469 7.496094 7.492187 7.496094h56.714844c4.140625 0 7.496094-3.355468 7.496094-7.496094 0-4.136718-3.355469-7.492187-7.496094-7.492187zm0 0"/><path d="m504.507812 371.738281h-21.65625v-270.042969c0-16.550781-13.464843-30.015624-30.015624-30.015624h-47.742188v-38.347657c0-18.378906-14.953125-33.332031-33.332031-33.332031h-231.527344c-18.378906 0-33.328125 14.953125-33.328125 33.332031v38.347657h-47.742188c-16.550781 0-30.015624 13.464843-30.015624 30.015624v270.042969h-21.65625c-4.136719 0-7.492188 3.355469-7.492188 7.496094v45.019531c0 17.667969 14.371094 32.039063 32.039062 32.039063h447.921876c17.667968 0 32.039062-14.371094 32.039062-32.039063v-45.019531c0-4.140625-3.355469-7.496094-7.492188-7.496094zm-382.617187-338.40625c0-10.117187 8.230469-18.347656 18.34375-18.347656h231.527344c10.117187 0 18.347656 8.230469 18.347656 18.347656v30.386719h-268.21875zm0 45.367188h268.21875v158.492187c0 10.117188-8.230469 18.347656-18.34375 18.347656h-231.53125c-10.113281 0-18.34375-8.230468-18.34375-18.347656zm18.34375 191.824219h231.527344c18.378906 0 33.332031-14.953126 33.332031-33.328126v-114.972656h22.472656c.441406 0 .804688.363282.804688.804688v165.042968c0 4.140626 3.355468 7.492188 7.492187 7.492188s7.492188-3.351562 7.492188-7.492188v-165.042968c0-8.707032-7.082031-15.789063-15.789063-15.789063h-22.472656v-20.574219h47.742188c8.289062 0 15.03125 6.742188 15.03125 15.03125v270.042969h-24.511719v-36.542969c0-4.136718-3.351563-7.492187-7.492188-7.492187-4.136719 0-7.492187 3.355469-7.492187 7.492187v36.542969h-344.742188v-248.710937c0-.441406.359375-.804688.804688-.804688h22.472656v114.972656c0 18.375 14.949219 33.328126 33.328125 33.328126zm187.816406 116.203124-6.527343 14.945313h-131.046876l-6.53125-14.945313zm-283.917969-285.03125c0-8.285156 6.742188-15.03125 15.03125-15.03125h47.742188v20.574219h-22.472656c-8.707032 0-15.789063 7.082031-15.789063 15.789063v248.710937h-24.511719zm452.882813 322.558594c0 9.402344-7.652344 17.050782-17.054687 17.050782h-447.921876c-9.402343 0-17.054687-7.648438-17.054687-17.050782v-37.527344h152.609375l9.796875 22.417969c1.996094 4.5625 6.5 7.507813 11.476563 7.507813h134.265624c4.976563 0 9.480469-2.945313 11.476563-7.507813l9.796875-22.421875h152.609375zm0 0"/><path d="m149.261719 32.425781c-.460938-.191406-.933594-.328125-1.410157-.429687-2.441406-.488282-5.03125.308594-6.769531 2.050781-4.589843 4.589844-1.183593 12.800781 5.308594 12.800781.488281 0 .980469-.050781 1.460937-.140625 2.949219-.554687 5.253907-2.84375 5.886719-5.890625.101563-.480468.152344-.980468.152344-1.460937 0-1.980469-.8125-3.910157-2.199219-5.308594-.695312-.699219-1.527344-1.238281-2.429687-1.621094zm0 0"/><path d="m173.960938 31.996094c-2.207032-.4375-5.183594.449218-6.769532 2.050781-1.390625 1.398437-2.191406 3.328125-2.191406 5.308594 0 3.101562 1.796875 5.726562 4.628906 6.921875.449219.1875.921875.328125 1.402344.429687.433594.078125.941406.109375 1.46875.097657 1.027344-.023438 2.121094-.214844 2.871094-.527344.449218-.191406.878906-.421875 1.289062-.691406.410156-.269532.789063-.589844 1.140625-.929688 1.398438-1.398438 2.199219-3.332031 2.199219-5.300781 0-1.980469-.800781-3.910157-2.199219-5.308594-.953125-.925781-2.535156-1.792969-3.839843-2.050781zm0 0"/><path d="m197.140625 31.996094c-.390625.082031-.972656.25-1.402344.429687-.449219.191407-.886719.421875-1.296875.691407-.410156.269531-.792968.589843-1.140625.929687-1.390625 1.398437-2.191406 3.328125-2.191406 5.308594 0 3.527343 2.550781 6.699219 6.03125 7.351562.480469.089844.980469.140625 1.46875.140625 2.328125 0 4.945313-1.378906 6.230469-3.332031.777344-1.183594 1.269531-2.816406 1.269531-4.160156 0-4.679688-4.414063-8.308594-8.96875-7.359375zm0 0"/></svg>