<svg height="512pt" viewBox="-65 0 512 512" width="512pt" xmlns="http://www.w3.org/2000/svg"><path d="m351.160156 504.5h-319.625c-13.273437 0-24.035156-10.761719-24.035156-24.035156v-448.929688c0-13.273437 10.761719-24.03125 24.035156-24.03125h319.625c13.273438 0 24.035156 10.757813 24.035156 24.03125v448.929688c0 13.273437-10.761718 24.035156-24.035156 24.035156zm0 0" fill="#ffd86e"/><path d="m375.191406 31.539062v448.929688c0 13.273438-10.753906 24.035156-24.035156 24.035156h-31.09375c13.269531 0 24.03125-10.761718 24.03125-24.035156v-448.929688c0-13.273437-10.761719-24.035156-24.03125-24.035156h31.09375c13.28125 0 24.035156 10.761719 24.035156 24.035156zm0 0" fill="#ffb509"/><path d="m324.738281 403.570312h-90.355469c-8.613281 0-15.597656-6.984374-15.597656-15.597656v-80.246094c0-8.613281 6.984375-15.597656 15.597656-15.597656h90.355469c8.613281 0 15.59375 6.984375 15.59375 15.597656v80.246094c0 8.613282-6.980469 15.597656-15.59375 15.597656zm0 0" fill="#0396fd"/><path d="m340.332031 307.726562v80.246094c0 8.609375-6.980469 15.601563-15.601562 15.601563h-18.464844c8.613281 0 15.59375-6.992188 15.59375-15.601563v-80.246094c0-8.609374-6.980469-15.589843-15.59375-15.589843h18.464844c8.621093 0 15.601562 6.980469 15.601562 15.589843zm0 0" fill="#0077f0"/><path d="m335.332031 97.015625h-287.96875c-2.761719 0-5-2.238281-5-5v-38.089844c0-2.761719 2.238281-5.003906 5-5.003906h287.96875c2.761719 0 5 2.242187 5 5.003906v38.089844c0 2.761719-2.238281 5-5 5zm0 0" fill="#0396fd"/><path d="m335.332031 97.015625h-16.730469v-48.09375h16.730469c2.761719 0 5 2.242187 5 5.003906v38.089844c0 2.761719-2.238281 5-5 5zm0 0" fill="#0077f0"/><path d="m328.164062 258.269531h-273.632812c-6.71875 0-12.167969-5.449219-12.167969-12.171875v-103.050781c0-6.71875 5.449219-12.167969 12.167969-12.167969h273.632812c6.71875 0 12.167969 5.449219 12.167969 12.167969v103.050781c0 6.722656-5.449219 12.171875-12.167969 12.171875zm0 0" fill="#c9f0ff"/><path d="m71.140625 257.523438 84.761719-84.71875c2.035156-2.035157 5.363281-1.9375 7.273437.21875l74.984375 84.5zm0 0" fill="#80e0dc"/><path d="m176.359375 257.523438 67.894531-67.863282c2.035156-2.035156 5.367188-1.933594 7.277344.21875l60.023438 67.644532zm0 0" fill="#80e0dc"/><path d="m340.335938 143.046875v103.050781c0 6.71875-5.453126 12.171875-12.171876 12.171875h-21.734374c6.71875 0 12.171874-5.453125 12.171874-12.171875v-103.050781c0-6.71875-5.453124-12.171875-12.171874-12.171875h21.734374c6.71875 0 12.171876 5.453125 12.171876 12.171875zm0 0" fill="#9ae7fd"/><path d="m148.3125 403.570312h-90.355469c-8.613281 0-15.59375-6.984374-15.59375-15.597656v-80.246094c0-8.613281 6.980469-15.597656 15.59375-15.597656h90.355469c8.613281 0 15.597656 6.984375 15.597656 15.597656v80.246094c0 8.613282-6.984375 15.597656-15.597656 15.597656zm0 0" fill="#0396fd"/><path d="m163.914062 307.726562v80.246094c0 8.609375-6.980468 15.601563-15.605468 15.601563h-18.460938c8.609375 0 15.59375-6.992188 15.59375-15.601563v-80.246094c0-8.609374-6.984375-15.589843-15.59375-15.589843h18.460938c8.625 0 15.605468 6.980469 15.605468 15.589843zm0 0" fill="#0077f0"/><path d="m351.160156 0h-319.625c-17.386718 0-31.535156 14.148438-31.535156 31.535156v253.472656c0 4.140626 3.359375 7.5 7.5 7.5 4.144531 0 7.503906-3.359374 7.503906-7.5v-253.472656c0-9.117187 7.417969-16.53125 16.53125-16.53125h319.625c9.117188 0 16.53125 7.417969 16.53125 16.53125v448.929688c0 9.117187-7.417968 16.53125-16.53125 16.53125h-319.625c-9.117187 0-16.53125-7.417969-16.53125-16.53125v-148.117188c0-4.140625-3.359375-7.5-7.503906-7.5-4.140625 0-7.5 3.359375-7.5 7.5v148.117188c0 17.386718 14.148438 31.535156 31.535156 31.535156h319.625c17.386719 0 31.535156-14.148438 31.535156-31.535156v-448.929688c0-17.386718-14.148437-31.535156-31.535156-31.535156zm0 0"/><path d="m115.335938 56.425781c4.140624 0 7.5-3.359375 7.5-7.503906 0-4.140625-3.359376-7.5-7.5-7.5h-67.972657c-6.894531 0-12.503906 5.609375-12.503906 12.503906v38.089844c0 6.894531 5.609375 12.5 12.503906 12.5h287.96875c6.894531 0 12.503907-5.605469 12.503907-12.5v-38.089844c0-6.894531-5.609376-12.503906-12.503907-12.503906h-172.988281c-4.144531 0-7.503906 3.359375-7.503906 7.5 0 4.144531 3.359375 7.503906 7.503906 7.503906h170.488281v33.089844h-282.96875v-33.089844zm0 0"/><path d="m34.859375 246.097656c0 10.847656 8.828125 19.671875 19.671875 19.671875h273.632812c10.847657 0 19.671876-8.824219 19.671876-19.671875v-103.050781c0-10.847656-8.824219-19.671875-19.671876-19.671875h-273.632812c-10.84375 0-19.671875 8.824219-19.671875 19.671875zm53.65625 4.667969 70.8125-70.78125 55.640625 62.707031c2.746094 3.097656 7.488281 3.382813 10.589844.628906 3.097656-2.746093 3.378906-7.488281.628906-10.589843l-6.773438-7.632813 28.265626-28.253906 47.847656 53.921875zm-38.652344-107.71875c0-2.574219 2.09375-4.667969 4.667969-4.667969h273.632812c2.574219 0 4.667969 2.09375 4.667969 4.667969v103.050781c0 2.574219-2.09375 4.667969-4.667969 4.667969h-12.578124l-58.445313-65.863281c-2.273437-2.566406-5.546875-4.097656-8.976563-4.199219-3.4375-.109375-6.785156 1.226563-9.210937 3.652344l-29.511719 29.5-40.652344-45.8125c-2.277343-2.566407-5.546874-4.097657-8.976562-4.199219-3.429688-.105469-6.785156 1.230469-9.210938 3.65625l-83.308593 83.265625h-12.757813c-2.574218 0-4.667968-2.09375-4.667968-4.667969v-103.050781zm0 0"/><path d="m34.859375 387.972656c0 12.738282 10.363281 23.097656 23.097656 23.097656h90.355469c12.738281 0 23.097656-10.359374 23.097656-23.097656v-80.246094c0-12.734374-10.359375-23.097656-23.097656-23.097656h-90.355469c-12.734375 0-23.097656 10.363282-23.097656 23.097656zm121.546875-4.207031-41.953125-37.132813 41.953125-37.132812zm-8.734375 12.304687h-89.074219l44.539063-39.421874zm-44.535156-59.453124-41.785157-36.984376h83.570313zm-11.320313 10.015624-41.953125 37.132813v-74.265625zm0 0"/><path d="m347.835938 307.726562c0-12.734374-10.363282-23.097656-23.097657-23.097656h-90.355469c-12.738281 0-23.097656 10.363282-23.097656 23.097656v80.246094c0 12.738282 10.359375 23.097656 23.097656 23.097656h90.355469c12.734375 0 23.097657-10.359374 23.097657-23.097656zm-121.546876 1.773438 41.953126 37.132812-41.953126 37.132813zm11.484376-9.867188h83.570312l-41.785156 36.984376zm41.785156 57.015626 44.539062 39.421874h-89.074218zm11.320312-10.015626 41.953125-37.132812v74.265625zm0 0"/><path d="m45.367188 477.371094h33.375c4.144531 0 7.503906-3.359375 7.503906-7.5 0-4.144532-3.359375-7.5-7.503906-7.5h-33.375c-4.144532 0-7.503907 3.355468-7.503907 7.5 0 4.140625 3.359375 7.5 7.503907 7.5zm0 0"/><path d="m106.140625 477.371094h54.765625c4.140625 0 7.5-3.359375 7.5-7.5 0-4.144532-3.359375-7.5-7.5-7.5h-54.765625c-4.144531 0-7.503906 3.355468-7.503906 7.5 0 4.140625 3.359375 7.5 7.503906 7.5zm0 0"/><path d="m45.367188 444.933594h14.214843c4.144531 0 7.503907-3.359375 7.503907-7.5 0-4.144532-3.359376-7.503906-7.503907-7.503906h-14.214843c-4.144532 0-7.503907 3.359374-7.503907 7.503906 0 4.140625 3.359375 7.5 7.503907 7.5zm0 0"/><path d="m160.246094 444.933594c4.140625 0 7.5-3.359375 7.5-7.5 0-4.144532-3.359375-7.503906-7.5-7.503906h-15.570313c-4.144531 0-7.5 3.359374-7.5 7.503906 0 4.140625 3.355469 7.5 7.5 7.5zm0 0"/><path d="m127 437.433594c0-4.144532-3.359375-7.503906-7.503906-7.503906h-34.832032c-4.140624 0-7.5 3.359374-7.5 7.503906 0 4.140625 3.359376 7.5 7.5 7.5h34.832032c4.144531 0 7.503906-3.359375 7.503906-7.5zm0 0"/><path d="m221.789062 477.371094h33.378907c4.140625 0 7.5-3.359375 7.5-7.5 0-4.144532-3.359375-7.5-7.5-7.5h-33.378907c-4.140624 0-7.5 3.355468-7.5 7.5 0 4.140625 3.359376 7.5 7.5 7.5zm0 0"/><path d="m282.5625 477.371094h54.765625c4.144531 0 7.503906-3.359375 7.503906-7.5 0-4.144532-3.359375-7.5-7.503906-7.5h-54.765625c-4.140625 0-7.5 3.355468-7.5 7.5 0 4.140625 3.359375 7.5 7.5 7.5zm0 0"/><path d="m221.789062 444.933594h14.21875c4.140626 0 7.5-3.359375 7.5-7.5 0-4.144532-3.359374-7.503906-7.5-7.503906h-14.21875c-4.140624 0-7.5 3.359374-7.5 7.503906 0 4.140625 3.359376 7.5 7.5 7.5zm0 0"/><path d="m336.667969 444.933594c4.144531 0 7.503906-3.359375 7.503906-7.5 0-4.144532-3.359375-7.503906-7.503906-7.503906h-15.570313c-4.140625 0-7.5 3.359374-7.5 7.503906 0 4.140625 3.359375 7.5 7.5 7.5zm0 0"/><path d="m303.421875 437.433594c0-4.144532-3.359375-7.503906-7.5-7.503906h-34.832031c-4.144532 0-7.503906 3.359374-7.503906 7.503906 0 4.140625 3.359374 7.5 7.503906 7.5h34.832031c4.140625 0 7.5-3.359375 7.5-7.5zm0 0"/></svg>