<svg height="512pt" viewBox="0 0 512 512" width="512pt" xmlns="http://www.w3.org/2000/svg"><path d="m186.277344 421.03125h138.875v41.863281h-138.875zm0 0" fill="#5a5a5a"/><path d="m478.453125 421.03125h-445.472656c-14.078125 0-25.488281-11.410156-25.488281-25.484375v-362.566406c0-14.078125 11.410156-25.488281 25.488281-25.488281h445.472656c14.074219 0 25.484375 11.410156 25.484375 25.488281v362.566406c0 14.074219-11.410156 25.484375-25.484375 25.484375zm0 0" fill="#c9f0ff"/><path d="m503.941406 32.984375v362.5625c0 14.078125-11.410156 25.484375-25.484375 25.484375h-31.132812c14.078125 0 25.484375-11.40625 25.484375-25.484375v-362.5625c0-14.078125-11.40625-25.488281-25.484375-25.488281h31.132812c14.074219 0 25.484375 11.410156 25.484375 25.488281zm0 0" fill="#9ae7fd"/><path d="m503.9375 359.628906h-496.445312v35.917969c0 14.074219 11.410156 25.484375 25.488281 25.484375h445.472656c14.074219 0 25.484375-11.410156 25.484375-25.484375zm0 0" fill="#838383"/><path d="m503.941406 359.628906v35.917969c0 14.078125-11.410156 25.484375-25.484375 25.484375h-31.132812c14.078125 0 25.484375-11.40625 25.484375-25.484375v-35.917969zm0 0" fill="#5a5a5a"/><path d="m504.507812 94.4375h-496.460937v-61.460938c0-14.074218 11.410156-25.480468 25.484375-25.480468h445.492188c14.074218 0 25.484374 11.40625 25.484374 25.480468zm0 0" fill="#acacac"/><path d="m504.511719 32.972656v61.464844h-31.703125v-61.464844c0-14.066406-11.40625-25.476562-25.484375-25.476562h31.699219c14.078124 0 25.488281 11.410156 25.488281 25.476562zm0 0" fill="#9c9c9c"/><path d="m69.757812 50.753906c0 8.003906-6.488281 14.496094-14.496093 14.496094-8.007813 0-14.496094-6.492188-14.496094-14.496094 0-8.007812 6.488281-14.5 14.496094-14.5 8.007812 0 14.496093 6.492188 14.496093 14.5zm0 0" fill="#ff6b81"/><path d="m125.746094 50.753906c0 8.003906-6.492188 14.496094-14.496094 14.496094-8.007812 0-14.5-6.492188-14.5-14.496094 0-8.007812 6.492188-14.5 14.5-14.5 8.003906 0 14.496094 6.492188 14.496094 14.5zm0 0" fill="#ffd86e"/><path d="m181.730469 50.753906c0 8.003906-6.488281 14.496094-14.496094 14.496094-8.003906 0-14.496094-6.492188-14.496094-14.496094 0-8.007812 6.492188-14.5 14.496094-14.5 8.007813 0 14.496094 6.492188 14.496094 14.5zm0 0" fill="#80e0dc"/><path d="m69.753906 50.757812c0 8.003907-6.484375 14.484376-14.488281 14.484376-3.875 0-7.402344-1.515626-10-4.003907 7.84375-.171875 14.15625-6.585937 14.15625-14.476562 0-4.136719-1.726563-7.855469-4.496094-10.492188.113281-.007812.230469-.007812.339844-.007812 8.003906 0 14.488281 6.484375 14.488281 14.496093zm0 0" fill="#ff435f"/><path d="m125.742188 50.757812c0 8.003907-6.484376 14.484376-14.496094 14.484376-3.875 0-7.394532-1.515626-10-4.003907 7.851562-.171875 14.167968-6.585937 14.167968-14.476562 0-4.136719-1.730468-7.855469-4.496093-10.492188.109375-.007812.21875-.007812.328125-.007812 8.011718 0 14.496094 6.484375 14.496094 14.496093zm0 0" fill="#ffb509"/><path d="m181.734375 50.757812c0 8.003907-6.496094 14.484376-14.5 14.484376-3.875 0-7.390625-1.515626-10-4.003907 7.855469-.171875 14.15625-6.585937 14.15625-14.476562 0-4.136719-1.726563-7.855469-4.496094-10.492188.113281-.007812.230469-.007812.339844-.007812 8.003906 0 14.5 6.484375 14.5 14.496093zm0 0" fill="#00a8b0"/><path d="m370.152344 503.953125h-228.875c-2.757813 0-4.996094-2.234375-4.996094-4.996094v-16.1875c0-10.976562 8.902344-19.875 19.878906-19.875h199.113282c10.976562 0 19.875 8.898438 19.875 19.875v16.1875c0 2.761719-2.234376 4.996094-4.996094 4.996094zm0 0" fill="#838383"/><path d="m375.148438 482.765625v16.195313c0 2.761718-2.238282 4.996093-4.996094 4.996093h-17.632813v-21.191406c0-10.96875-8.902343-19.871094-19.871093-19.871094h22.628906c10.972656 0 19.871094 8.898438 19.871094 19.871094zm0 0" fill="#5a5a5a"/><path d="m278 147.585938c0 12.304687-9.976562 22.285156-22.285156 22.285156-12.304688 0-22.285156-9.980469-22.285156-22.285156 0-12.308594 9.980468-22.285157 22.285156-22.285157 12.308594 0 22.285156 9.976563 22.285156 22.285157zm0 0" fill="#ff6b81"/><path d="m272.488281 211.332031h-33.542969c-2.757812 0-4.996093-2.238281-4.996093-4.996093v-20.761719c0-8.675781 7.03125-15.703125 15.703125-15.703125h12.128906c8.671875 0 15.703125 7.027344 15.703125 15.703125v20.761719c0 2.757812-2.238281 4.996093-4.996094 4.996093zm0 0" fill="#ff6b81"/><path d="m278.007812 147.589844c0 12.300781-9.984374 22.28125-22.292968 22.28125-2.007813 0-3.953125-.269532-5.804688-.769532 9.503906-2.550781 16.488282-11.222656 16.488282-21.511718 0-10.300782-6.984376-18.972656-16.488282-21.519532 1.851563-.5 3.796875-.769531 5.804688-.769531 12.308594 0 22.292968 9.980469 22.292968 22.289063zm0 0" fill="#ff435f"/><path d="m277.488281 185.574219v20.761719c0 2.757812-2.238281 4.996093-4.996093 4.996093h-6.605469v-25.757812c0-8.671875-7.035157-15.703125-15.707031-15.703125h11.601562c8.671875 0 15.707031 7.03125 15.707031 15.703125zm0 0" fill="#ff435f"/><path d="m384.921875 319.125h-258.414063c-3.863281 0-6.992187-3.132812-6.992187-6.992188v-66.941406c0-3.863281 3.128906-6.992187 6.992187-6.992187h258.414063c3.863281 0 6.996094 3.128906 6.996094 6.992187v66.941406c0 3.859376-3.132813 6.992188-6.996094 6.992188zm0 0" fill="#0396fd"/><path d="m384.921875 319.125h-17.597656v-80.925781h17.597656c3.863281 0 6.996094 3.128906 6.996094 6.992187v66.941406c0 3.859376-3.132813 6.992188-6.996094 6.992188zm0 0" fill="#0077f0"/><g fill="#ffd86e"><path d="m167.308594 278.660156c0 6.40625-5.191406 11.601563-11.601563 11.601563-6.40625 0-11.597656-5.195313-11.597656-11.601563s5.191406-11.597656 11.597656-11.597656c6.410157 0 11.601563 5.191406 11.601563 11.597656zm0 0"/><path d="m217.3125 278.660156c0 6.40625-5.191406 11.601563-11.601562 11.601563-6.40625 0-11.597657-5.195313-11.597657-11.601563s5.191407-11.597656 11.597657-11.597656c6.410156 0 11.601562 5.191406 11.601562 11.597656zm0 0"/><path d="m267.316406 278.660156c0 6.40625-5.191406 11.601563-11.601562 11.601563-6.40625 0-11.597656-5.195313-11.597656-11.601563s5.191406-11.597656 11.597656-11.597656c6.410156 0 11.601562 5.191406 11.601562 11.597656zm0 0"/><path d="m317.320312 278.660156c0 6.40625-5.195312 11.601563-11.601562 11.601563s-11.597656-5.195313-11.597656-11.601563 5.191406-11.597656 11.597656-11.597656 11.601562 5.191406 11.601562 11.597656zm0 0"/><path d="m367.324219 278.660156c0 6.40625-5.195313 11.601563-11.601563 11.601563s-11.597656-5.195313-11.597656-11.601563 5.191406-11.597656 11.597656-11.597656 11.601563 5.191406 11.601563 11.597656zm0 0"/></g><path d="m167.304688 278.660156c0 6.40625-5.195313 11.601563-11.597657 11.601563-4.296875 0-8.054687-2.347657-10.0625-5.824219h.070313c6.40625 0 11.601562-5.195312 11.601562-11.601562 0-2.105469-.5625-4.074219-1.539062-5.773438 6.375.039062 11.527344 5.214844 11.527344 11.597656zm0 0" fill="#ffb509"/><path d="m217.3125 278.660156c0 6.40625-5.195312 11.601563-11.601562 11.601563-4.296876 0-8.050782-2.347657-10.058594-5.824219h.066406c6.40625 0 11.601562-5.195312 11.601562-11.601562 0-2.105469-.558593-4.074219-1.539062-5.773438 6.375.039062 11.53125 5.214844 11.53125 11.597656zm0 0" fill="#ffb509"/><path d="m267.316406 278.660156c0 6.40625-5.195312 11.601563-11.601562 11.601563-4.292969 0-8.050782-2.347657-10.058594-5.824219h.070312c6.402344 0 11.597657-5.195312 11.597657-11.601562 0-2.105469-.558594-4.074219-1.539063-5.773438 6.375.039062 11.53125 5.214844 11.53125 11.597656zm0 0" fill="#ffb509"/><path d="m317.320312 278.660156c0 6.40625-5.195312 11.601563-11.597656 11.601563-4.296875 0-8.054687-2.347657-10.0625-5.824219h.070313c6.402343 0 11.597656-5.195312 11.597656-11.601562 0-2.105469-.558594-4.074219-1.535156-5.773438 6.371093.039062 11.527343 5.214844 11.527343 11.597656zm0 0" fill="#ffb509"/><path d="m367.324219 278.660156c0 6.40625-5.195313 11.601563-11.597657 11.601563-4.296874 0-8.054687-2.347657-10.0625-5.824219h.070313c6.40625 0 11.601563-5.195312 11.601563-11.601562 0-2.105469-.5625-4.074219-1.539063-5.773438 6.375.039062 11.527344 5.214844 11.527344 11.597656zm0 0" fill="#ffb509"/><path d="m55.261719 28.761719c-12.125 0-21.988281 9.867187-21.988281 21.992187s9.863281 21.988282 21.988281 21.988282 21.992187-9.863282 21.992187-21.988282-9.867187-21.992187-21.992187-21.992187zm0 28.996093c-3.859375 0-7.003907-3.144531-7.003907-7.003906 0-3.863281 3.144532-7.003906 7.003907-7.003906 3.863281 0 7.003906 3.140625 7.003906 7.003906 0 3.859375-3.140625 7.003906-7.003906 7.003906zm0 0"/><path d="m111.25 28.761719c-12.125 0-21.992188 9.867187-21.992188 21.992187s9.867188 21.988282 21.992188 21.988282 21.988281-9.863282 21.988281-21.988282-9.863281-21.992187-21.988281-21.992187zm0 28.996093c-3.863281 0-7.003906-3.144531-7.003906-7.003906 0-3.863281 3.140625-7.003906 7.003906-7.003906 3.859375 0 7.003906 3.140625 7.003906 7.003906 0 3.859375-3.144531 7.003906-7.003906 7.003906zm0 0"/><path d="m167.234375 28.761719c-12.125 0-21.988281 9.867187-21.988281 21.992187s9.863281 21.988282 21.988281 21.988282 21.992187-9.863282 21.992187-21.988282-9.867187-21.992187-21.992187-21.992187zm0 28.996093c-3.859375 0-7.003906-3.144531-7.003906-7.003906 0-3.863281 3.144531-7.003906 7.003906-7.003906 3.863281 0 7.003906 3.140625 7.003906 7.003906 0 3.859375-3.140625 7.003906-7.003906 7.003906zm0 0"/><path d="m479.023438 0h-446.042969c-18.183594 0-32.980469 14.792969-32.980469 32.980469v362.566406c0 18.183594 14.796875 32.980469 32.980469 32.980469h145.804687v26.871094h-22.625c-15.089844 0-27.371094 12.28125-27.371094 27.371093v16.1875c0 6.886719 5.601563 12.492188 12.488282 12.492188h228.875c6.886718 0 12.488281-5.605469 12.488281-12.492188v-16.1875c0-15.089843-12.277344-27.371093-27.371094-27.371093h-22.625v-26.871094h145.808594c18.183594 0 32.980469-14.796875 32.980469-32.980469v-171.003906c0-4.140625-3.355469-7.492188-7.496094-7.492188-4.136719 0-7.492188 3.351563-7.492188 7.492188v127.59375h-481.457031v-250.207031h481.457031v75.324218c0 4.136719 3.355469 7.492188 7.492188 7.492188 4.140625 0 7.496094-3.355469 7.496094-7.492188l.566406-144.277344c0-18.183593-14.792969-32.976562-32.976562-32.976562zm-111.367188 482.769531v13.691407h-223.882812v-13.691407c0-6.828125 5.558593-12.382812 12.386718-12.382812h199.113282c6.828124 0 12.382812 5.554687 12.382812 12.382812zm-49.996094-27.371093h-123.890625v-26.871094h123.890625zm178.785156-88.273438v28.421875c0 9.921875-8.070312 17.992187-17.992187 17.992187h-445.472656c-9.921875 0-17.992188-8.070312-17.992188-17.992187v-28.421875zm0-280.183594h-480.90625v-53.964844c0-9.917968 8.070313-17.988281 17.992188-17.988281h444.921875c9.921875 0 17.992187 8.070313 17.992187 17.992188zm0 0"/><path d="m255.714844 117.808594c-16.417969 0-29.777344 13.355468-29.777344 29.777344 0 8.003906 3.183594 15.277343 8.339844 20.636718-4.792969 4.25-7.824219 10.453125-7.824219 17.351563v20.761719c0 6.886718 5.601563 12.488281 12.492187 12.488281h33.539063c6.886719 0 12.492187-5.601563 12.492187-12.488281v-20.761719c0-6.898438-3.03125-13.097657-7.824218-17.351563 5.15625-5.359375 8.339844-12.632812 8.339844-20.636718.003906-16.421876-13.355469-29.777344-29.777344-29.777344zm14.273437 86.027344h-28.546875v-18.261719c0-4.527344 3.683594-8.210938 8.210938-8.210938h12.128906c4.527344 0 8.210938 3.683594 8.210938 8.210938v18.261719zm-14.273437-41.460938c-8.15625 0-14.792969-6.632812-14.792969-14.789062s6.636719-14.792969 14.792969-14.792969 14.792968 6.636719 14.792968 14.792969-6.636718 14.789062-14.792968 14.789062zm0 0"/><path d="m112.023438 245.191406v66.941406c0 7.988282 6.496093 14.484376 14.484374 14.484376h258.414063c7.988281 0 14.488281-6.496094 14.488281-14.484376v-66.941406c0-7.988281-6.5-14.488281-14.488281-14.488281h-50.101563c-4.140624 0-7.492187 3.355469-7.492187 7.496094 0 4.136719 3.351563 7.492187 7.492187 7.492187h49.601563v65.941406h-257.414063v-65.941406h161.429688c4.136719 0 7.492188-3.355468 7.492188-7.492187 0-4.140625-3.355469-7.496094-7.492188-7.496094h-161.929688c-7.988281 0-14.484374 6.5-14.484374 14.488281zm0 0"/><path d="m136.613281 278.660156c0 10.53125 8.566407 19.09375 19.09375 19.09375 10.527344 0 19.09375-8.5625 19.09375-19.09375 0-10.527344-8.566406-19.09375-19.09375-19.09375-10.527343 0-19.09375 8.566406-19.09375 19.09375zm23.203125 0c0 2.265625-1.84375 4.109375-4.109375 4.109375-2.261719 0-4.105469-1.84375-4.105469-4.109375 0-2.261718 1.84375-4.105468 4.105469-4.105468 2.265625 0 4.109375 1.84375 4.109375 4.105468zm0 0"/><path d="m186.617188 278.660156c0 10.53125 8.566406 19.09375 19.09375 19.09375 10.527343 0 19.09375-8.5625 19.09375-19.09375 0-10.527344-8.566407-19.09375-19.09375-19.09375-10.527344 0-19.09375 8.566406-19.09375 19.09375zm23.203124 0c0 2.265625-1.84375 4.109375-4.109374 4.109375-2.261719 0-4.105469-1.84375-4.105469-4.109375 0-2.261718 1.84375-4.105468 4.105469-4.105468 2.265624 0 4.109374 1.84375 4.109374 4.105468zm0 0"/><path d="m236.621094 278.660156c0 10.53125 8.566406 19.09375 19.09375 19.09375s19.09375-8.5625 19.09375-19.09375c0-10.527344-8.566406-19.09375-19.09375-19.09375s-19.09375 8.566406-19.09375 19.09375zm23.203125 0c0 2.265625-1.84375 4.109375-4.109375 4.109375-2.261719 0-4.105469-1.84375-4.105469-4.109375 0-2.261718 1.84375-4.105468 4.105469-4.105468 2.265625 0 4.109375 1.84375 4.109375 4.105468zm0 0"/><path d="m286.625 278.660156c0 10.53125 8.566406 19.09375 19.09375 19.09375s19.09375-8.5625 19.09375-19.09375c0-10.527344-8.566406-19.09375-19.09375-19.09375s-19.09375 8.566406-19.09375 19.09375zm19.09375-4.105468c2.265625 0 4.109375 1.84375 4.109375 4.105468 0 2.265625-1.84375 4.109375-4.109375 4.109375-2.261719 0-4.105469-1.84375-4.105469-4.109375 0-2.261718 1.84375-4.105468 4.105469-4.105468zm0 0"/><path d="m374.816406 278.660156c0-10.527344-8.566406-19.09375-19.09375-19.09375s-19.089844 8.566406-19.089844 19.09375c0 10.53125 8.5625 19.09375 19.089844 19.09375s19.09375-8.5625 19.09375-19.09375zm-23.199218 0c0-2.261718 1.84375-4.105468 4.105468-4.105468 2.265625 0 4.109375 1.84375 4.109375 4.105468 0 2.265625-1.84375 4.109375-4.109375 4.109375-2.261718 0-4.105468-1.84375-4.105468-4.109375zm0 0"/></svg>