<svg height="512.001pt" viewBox="0 0 512.001 512.001" width="512.001pt" xmlns="http://www.w3.org/2000/svg"><path d="m478.988281 504.5h-445.976562c-14.089844 0-25.511719-11.421875-25.511719-25.511719v-445.976562c0-14.089844 11.421875-25.511719 25.511719-25.511719h445.976562c14.089844 0 25.511719 11.421875 25.511719 25.511719v445.976562c0 14.089844-11.421875 25.511719-25.511719 25.511719zm0 0" fill="#e7e7e7"/><path d="m504.503906 33.007812v445.980469c0 14.09375-11.421875 25.515625-25.515625 25.515625h-26.292969c14.089844 0 25.515626-11.421875 25.515626-25.515625v-445.980469c0-14.082031-11.425782-25.503906-25.515626-25.503906h26.292969c14.09375 0 25.515625 11.421875 25.515625 25.503906zm0 0" fill="#cecece"/><path d="m504.5 94.535156h-497v-61.523437c0-14.089844 11.421875-25.511719 25.511719-25.511719h445.976562c14.089844 0 25.511719 11.421875 25.511719 25.511719zm0 0" fill="#64dcfc"/><path d="m504.503906 33.007812v61.53125h-26.292968v-61.53125c0-14.082031-11.425782-25.503906-25.515626-25.503906h26.292969c14.09375 0 25.515625 11.421875 25.515625 25.503906zm0 0" fill="#00d1fc"/><path d="m69.28125 50.808594c0 8.011718-6.496094 14.511718-14.511719 14.511718s-14.511719-6.5-14.511719-14.511718c0-8.015625 6.496094-14.515625 14.511719-14.515625s14.511719 6.5 14.511719 14.515625zm0 0" fill="#ff6b81"/><path d="m125.328125 50.808594c0 8.011718-6.496094 14.511718-14.511719 14.511718s-14.511718-6.5-14.511718-14.511718c0-8.015625 6.496093-14.515625 14.511718-14.515625s14.511719 6.5 14.511719 14.515625zm0 0" fill="#ffd86e"/><path d="m181.375 50.808594c0 8.011718-6.496094 14.511718-14.511719 14.511718s-14.511719-6.5-14.511719-14.511718c0-8.015625 6.496094-14.515625 14.511719-14.515625s14.511719 6.5 14.511719 14.515625zm0 0" fill="#80e0dc"/><path d="m69.277344 50.8125c0 8.011719-6.492188 14.503906-14.503906 14.503906-3.878907 0-7.410157-1.523437-10.011719-4.011718 7.851562-.171876 14.171875-6.59375 14.171875-14.492188 0-4.140625-1.730469-7.863281-4.5-10.503906.109375-.007813.230468-.007813.339844-.007813 8.011718-.003906 14.503906 6.488281 14.503906 14.511719zm0 0" fill="#ff435f"/><path d="m125.328125 50.8125c0 8.011719-6.492187 14.503906-14.515625 14.503906-3.878906 0-7.398438-1.523437-10.011719-4.011718 7.863281-.171876 14.183594-6.59375 14.183594-14.492188 0-4.140625-1.730469-7.863281-4.5-10.503906.109375-.007813.21875-.007813.328125-.007813 8.023438-.003906 14.515625 6.488281 14.515625 14.511719zm0 0" fill="#ffb509"/><path d="m181.375 50.8125c0 8.011719-6.5 14.503906-14.511719 14.503906-3.878906 0-7.402343-1.523437-10.011719-4.011718 7.863282-.171876 14.171876-6.59375 14.171876-14.492188 0-4.140625-1.730469-7.863281-4.5-10.503906.109374-.007813.230468-.007813.339843-.007813 8.011719-.003906 14.511719 6.488281 14.511719 14.511719zm0 0" fill="#00a8b0"/><path d="m193.90625 389.761719-38.566406-50.023438-24.464844 94.421875c-.6875 2.660156 1.316406 5.257813 4.0625 5.265625l97.539062.355469zm0 0" fill="#ffd86e"/><path d="m180.996094 439.59375-46.058594-.167969c-2.746094-.007812-4.75-2.605469-4.058594-5.265625l11.550782-44.589844zm0 0" fill="#838383"/><path d="m427.796875 276.199219-64.578125-83.753907 15.640625-12.058593c14.101563-10.871094 34.34375-8.253907 45.21875 5.84375l25.203125 32.691406c10.871094 14.101563 8.253906 34.347656-5.84375 45.21875zm0 0" fill="#838383"/><path d="m443.4375 264.144531-15.640625 12.058594-14.914063-19.34375 15.640626-12.058594c14.097656-10.871093 16.714843-31.117187 5.84375-45.21875l14.914062 19.34375c10.871094 14.101563 8.253906 34.347657-5.84375 45.21875zm0 0" fill="#5a5a5a"/><path d="m397.898438 316.40625-81.167969-105.273438c-2.863281-3.714843-2.175781-9.042968 1.539062-11.90625l24.746094-19.082031c3.710937-2.863281 9.042969-2.171875 11.90625 1.539063l81.167969 105.277344c2.863281 3.710937 2.175781 9.042968-1.539063 11.90625l-24.746093 19.078124c-3.710938 2.863282-9.042969 2.175782-11.90625-1.539062zm0 0" fill="#ffd86e"/><path d="m397.898438 316.40625-8.296876-10.761719 38.191407-29.445312 8.296875 10.761719c2.863281 3.710937 2.175781 9.042968-1.539063 11.90625l-24.746093 19.078124c-3.710938 2.863282-9.042969 2.175782-11.90625-1.539062zm0 0" fill="#ffb509"/><path d="m318.753906 213.738281 77.136719 100.039063-163.398437 125.992187-77.136719-100.042969zm0 0" fill="#ff6b81"/><path d="m379.4375 292.4375 16.457031 21.34375-163.402343 125.988281-16.457032-21.339843zm0 0" fill="#ff435f"/><path d="m232.476562 439.78125-97.539062-.355469c-2.746094-.007812-4.75-2.605469-4.058594-5.265625l3.628906-14.019531 83.054688.300781zm0 0" fill="#ffb509"/><path d="m180.996094 439.59375-46.058594-.167969c-2.746094-.007812-4.75-2.605469-4.058594-5.265625l3.628906-14.019531 31.578126.109375zm0 0" fill="#5a5a5a"/><path d="m335.207031 235.078125 14.402344 18.675781-163.402344 125.992188-14.398437-18.675782zm0 0" fill="#80e0dc"/><path d="m365.035156 273.761719 14.402344 18.675781-163.402344 125.988281-14.398437-18.671875zm0 0" fill="#80e0dc"/><path d="m54.886719 432.28125c-4.144531 0-7.5 3.359375-7.5 7.5 0 4.144531 3.355469 7.503906 7.5 7.503906h47.792969c4.140624 0 7.5-3.359375 7.5-7.503906 0-4.140625-3.359376-7.5-7.5-7.5zm0 0"/><path d="m275.613281 447.285156h180.378907c4.144531 0 7.5-3.359375 7.5-7.503906 0-4.140625-3.355469-7.5-7.5-7.5h-180.378907c-4.144531 0-7.503906 3.359375-7.503906 7.5 0 4.144531 3.359375 7.503906 7.503906 7.503906zm0 0"/><path d="m218.992188 297.949219c3.28125-2.53125 3.890624-7.242188 1.363281-10.523438-2.53125-3.285156-7.246094-3.886719-10.523438-1.359375l-61.90625 47.730469c-.460937.359375-.863281.761719-1.21875 1.195313-.046875.054687-.09375.117187-.136719.171874-.164062.210938-.3125.429688-.453124.65625-.027344.046876-.058594.089844-.085938.136719-.160156.273438-.300781.554688-.421875.839844-.023437.058594-.042969.113281-.066406.171875-.097657.246094-.179688.496094-.25.75-.015625.046875-.035157.089844-.046875.136719l-12.910156 49.832031v.003906l-1.90625 7.347656-9.644532 37.238282c-.914062 3.527344-.164062 7.203125 2.0625 10.089844 2.222656 2.886718 5.589844 4.546874 9.230469 4.5625l97.539063.355468h.027343c.386719 0 .769531-.035156 1.148438-.09375.117187-.019531.234375-.050781.351562-.074218.257813-.054688.511719-.113282.761719-.191407.136719-.042969.265625-.097656.398438-.148437.226562-.085938.449218-.179688.667968-.289063.128906-.0625.257813-.128906.382813-.203125.222656-.125.429687-.265625.636719-.414062.074218-.050782.15625-.089844.230468-.148438l157.925782-121.765625c2.816406 2.132813 6.21875 3.25 9.660156 3.25 3.40625 0 6.84375-1.082031 9.742187-3.320312l24.75-19.078125c6.980469-5.386719 8.28125-15.445313 2.898438-22.425782l-3.71875-4.824218 9.703125-7.476563c17.355468-13.382812 20.585937-38.386719 7.207031-55.738281l-25.203125-32.691406c-13.382812-17.355469-38.382812-20.585938-55.738281-7.207032l-9.699219 7.480469-3.71875-4.820312c-2.609375-3.382813-6.378906-5.546875-10.613281-6.09375-4.242188-.546875-8.433594.585937-11.8125 3.191406l-24.75 19.082031c-5.828125 4.496094-7.679688 12.246094-5.003907 18.75l-59.269531 45.695313c-3.277343 2.53125-3.890625 7.238281-1.359375 10.519531 2.53125 3.285156 7.242188 3.894531 10.523438 1.363281l58.808594-45.34375 7.296874 9.460938-151.527343 116.832031-7.296875-9.460938zm161.617187-111.621094c10.804687-8.328125 26.367187-6.316406 34.695313 4.484375l25.207031 32.691406c8.328125 10.800782 6.316406 26.367188-4.488281 34.695313l-9.699219 7.480469-55.414063-71.875zm-244.238281 245.613281 6.644531-25.652344 19.851563 25.746094zm72.941406-30.816406 151.523438-116.832031.199218.257812 5.039063 6.539063-151.523438 116.828125zm142.363281-128.710938-151.523437 116.832032-6.269532-8.128906 151.527344-116.832032zm-169.808593 159.695313-34.085938-44.210937 8.144531-31.441407 36.921875 47.886719h.003906l14.398438 18.675781 7.097656 9.207031zm49.140624-2.847656-7.296874-9.460938 151.527343-116.832031 7.292969 9.460938zm89.011719-224.09375 24.746094-19.082031c.214844-.164063.457031-.230469.730469-.195313.269531.035156.488281.160156.65625.375l81.167968 105.273437c.332032.433594.253907 1.054688-.179687 1.386719l-24.746094 19.082031c-.433593.328126-1.054687.25-1.386719-.179687l-2.015624-2.613281-.253907-.332032-16.191406-21c-.003906-.003906-.007813-.007812-.011719-.015624l-14.398437-18.671876-48.296875-62.644531c-.332032-.429687-.253906-1.050781.179687-1.382812zm10.992188 40.441406 1.691406 2.195313 3.546875 4.601562-151.527344 116.828125-5.238281-6.792969zm0 0"/><path d="m54.769531 28.792969c-12.140625 0-22.015625 9.875-22.015625 22.015625 0 12.136718 9.875 22.011718 22.015625 22.011718 12.136719 0 22.011719-9.875 22.011719-22.011718 0-12.140625-9.875-22.015625-22.011719-22.015625zm0 29.023437c-3.867187 0-7.011719-3.144531-7.011719-7.007812 0-3.867188 3.144532-7.011719 7.011719-7.011719 3.863281 0 7.011719 3.144531 7.011719 7.011719 0 3.863281-3.148438 7.007812-7.011719 7.007812zm0 0"/><path d="m110.816406 28.792969c-12.140625 0-22.015625 9.875-22.015625 22.015625 0 12.136718 9.875 22.011718 22.015625 22.011718 12.136719 0 22.011719-9.875 22.011719-22.011718 0-12.140625-9.875-22.015625-22.011719-22.015625zm0 29.023437c-3.867187 0-7.011718-3.144531-7.011718-7.007812 0-3.867188 3.144531-7.011719 7.011718-7.011719 3.863282 0 7.011719 3.144531 7.011719 7.011719 0 3.863281-3.148437 7.007812-7.011719 7.007812zm0 0"/><path d="m166.863281 28.792969c-12.140625 0-22.015625 9.875-22.015625 22.015625 0 12.136718 9.875 22.011718 22.015625 22.011718 12.136719 0 22.011719-9.875 22.011719-22.011718 0-12.140625-9.875-22.015625-22.011719-22.015625zm0 29.023437c-3.867187 0-7.011719-3.144531-7.011719-7.007812 0-3.867188 3.144532-7.011719 7.011719-7.011719 3.863281 0 7.011719 3.144531 7.011719 7.011719 0 3.863281-3.148438 7.007812-7.011719 7.007812zm0 0"/><path d="m504.5 144.539062c4.140625 0 7.5-3.359374 7.5-7.503906v-104.023437c0-18.203125-14.808594-33.011719-33.011719-33.011719h-445.972656c-18.203125 0-33.015625 14.808594-33.015625 33.011719v445.976562c0 18.203125 14.8125 33.011719 33.015625 33.011719h445.972656c18.203125 0 33.011719-14.808594 33.011719-33.011719v-295c0-4.144531-3.355469-7.5-7.5-7.5s-7.5 3.355469-7.5 7.5v294.996094c0 9.933594-8.082031 18.011719-18.011719 18.011719h-445.972656c-9.933594 0-18.011719-8.078125-18.011719-18.011719v-376.945313h481.992188v34.996094c0 4.144532 3.359375 7.503906 7.503906 7.503906zm-489.496094-57.503906v-54.023437c0-9.929688 8.078125-18.007813 18.011719-18.007813h445.972656c9.929688 0 18.011719 8.078125 18.011719 18.007813v54.023437zm0 0"/></svg>