<svg height="512pt" viewBox="0 0 512 512" width="512pt" xmlns="http://www.w3.org/2000/svg"><path d="m478.984375 504.496094h-445.972656c-14.089844 0-25.511719-11.421875-25.511719-25.511719v-445.972656c0-14.089844 11.421875-25.511719 25.511719-25.511719h445.972656c14.089844 0 25.511719 11.421875 25.511719 25.511719v445.972656c0 14.089844-11.421875 25.511719-25.511719 25.511719zm0 0" fill="#e7e7e7"/><path d="m504.503906 33.007812v445.980469c0 14.089844-11.421875 25.511719-25.515625 25.511719h-26.292969c14.089844 0 25.511719-11.421875 25.511719-25.511719v-445.980469c0-14.082031-11.421875-25.503906-25.511719-25.503906h26.292969c14.09375 0 25.515625 11.421875 25.515625 25.503906zm0 0" fill="#cecece"/><path d="m504.496094 94.539062h-496.996094v-61.527343c0-14.089844 11.421875-25.511719 25.511719-25.511719h445.972656c14.089844 0 25.511719 11.421875 25.511719 25.511719zm0 0" fill="#64dcfc"/><path d="m504.503906 33.007812v61.53125h-26.296875v-61.53125c0-14.082031-11.421875-25.503906-25.511719-25.503906h26.292969c14.09375 0 25.515625 11.421875 25.515625 25.503906zm0 0" fill="#00d1fc"/><path d="m69.28125 50.808594c0 8.011718-6.496094 14.511718-14.511719 14.511718s-14.511719-6.5-14.511719-14.511718c0-8.015625 6.496094-14.515625 14.511719-14.515625s14.511719 6.5 14.511719 14.515625zm0 0" fill="#ff6b81"/><path d="m125.328125 50.808594c0 8.011718-6.496094 14.511718-14.511719 14.511718s-14.511718-6.5-14.511718-14.511718c0-8.015625 6.496093-14.515625 14.511718-14.515625s14.511719 6.5 14.511719 14.515625zm0 0" fill="#ffd86e"/><path d="m181.375 50.808594c0 8.011718-6.496094 14.511718-14.511719 14.511718s-14.511719-6.5-14.511719-14.511718c0-8.015625 6.496094-14.515625 14.511719-14.515625s14.511719 6.5 14.511719 14.515625zm0 0" fill="#80e0dc"/><path d="m69.277344 50.8125c0 8.011719-6.492188 14.503906-14.503906 14.503906-3.878907 0-7.410157-1.523437-10.011719-4.011718 7.851562-.171876 14.171875-6.59375 14.171875-14.492188 0-4.140625-1.730469-7.863281-4.5-10.503906.109375-.007813.230468-.007813.339844-.007813 8.011718 0 14.503906 6.488281 14.503906 14.511719zm0 0" fill="#ff435f"/><path d="m125.324219 50.8125c0 8.011719-6.488281 14.503906-14.511719 14.503906-3.878906 0-7.398438-1.523437-10.011719-4.011718 7.863281-.171876 14.183594-6.59375 14.183594-14.492188 0-4.140625-1.730469-7.863281-4.5-10.503906.109375-.007813.21875-.007813.328125-.007813 8.023438 0 14.511719 6.488281 14.511719 14.511719zm0 0" fill="#ffb509"/><path d="m181.375 50.8125c0 8.011719-6.5 14.503906-14.511719 14.503906-3.878906 0-7.402343-1.523437-10.011719-4.011718 7.863282-.171876 14.171876-6.59375 14.171876-14.492188 0-4.140625-1.730469-7.863281-4.5-10.503906.109374-.007813.230468-.007813.339843-.007813 8.011719 0 14.511719 6.488281 14.511719 14.511719zm0 0" fill="#00a8b0"/><path d="m218.222656 450.492188h-145.105468c-8.953126 0-16.214844-7.257813-16.214844-16.210938v-73.59375c0-8.957031 7.261718-16.214844 16.214844-16.214844h145.105468c8.953125 0 16.210938 7.257813 16.210938 16.214844v73.59375c0 8.953125-7.257813 16.210938-16.210938 16.210938zm0 0" fill="#0396fd"/><path d="m437.761719 450.492188h-145.105469c-8.957031 0-16.214844-7.257813-16.214844-16.210938v-73.59375c0-8.957031 7.257813-16.214844 16.214844-16.214844h145.105469c8.953125 0 16.210937 7.257813 16.210937 16.214844v73.59375c0 8.953125-7.257812 16.210938-16.210937 16.210938zm0 0" fill="#0396fd"/><path d="m234.433594 360.6875v73.59375c0 8.949219-7.257813 16.210938-16.210938 16.210938h-21.003906c8.953125 0 16.210938-7.261719 16.210938-16.210938v-73.59375c0-8.953125-7.257813-16.214844-16.210938-16.214844h21.003906c8.953125 0 16.210938 7.261719 16.210938 16.214844zm0 0" fill="#0077f0"/><path d="m453.972656 360.6875v73.59375c0 8.949219-7.261718 16.210938-16.210937 16.210938h-21.003907c8.949219 0 16.210938-7.261719 16.210938-16.210938v-73.59375c0-8.953125-7.261719-16.214844-16.210938-16.214844h21.003907c8.949219 0 16.210937 7.261719 16.210937 16.214844zm0 0" fill="#0077f0"/><path d="m437.757812 308.46875h-364.636718c-8.957032 0-16.21875-7.261719-16.21875-16.21875v-137.324219c0-8.957031 7.261718-16.214843 16.21875-16.214843h364.636718c8.953126 0 16.214844 7.257812 16.214844 16.214843v137.324219c0 8.957031-7.261718 16.21875-16.214844 16.21875zm0 0" fill="#c9f0ff"/><path d="m453.972656 154.929688v137.324218c0 8.953125-7.261718 16.214844-16.210937 16.214844h-21.003907c8.949219 0 16.210938-7.261719 16.210938-16.214844v-137.324218c0-8.960938-7.261719-16.222657-16.210938-16.222657h21.003907c8.949219 0 16.210937 7.261719 16.210937 16.222657zm0 0" fill="#9ae7fd"/><path d="m100.984375 307.476562 110.113281-110.0625c1.960938-1.960937 5.171875-1.867187 7.015625.210938l97.476563 109.851562zm0 0" fill="#80e0dc"/><path d="m236.179688 307.476562 88.445312-88.402343c1.960938-1.960938 5.171875-1.867188 7.011719.210937l78.257812 88.191406zm0 0" fill="#80e0dc"/><path d="m401.824219 186.78125c0 11.636719-9.429688 21.066406-21.066407 21.066406-11.632812 0-21.066406-9.429687-21.066406-21.066406 0-11.632812 9.433594-21.0625 21.066406-21.0625 11.636719 0 21.066407 9.429688 21.066407 21.0625zm0 0" fill="#ffd86e"/><path d="m401.820312 186.789062c0 11.628907-9.421874 21.050782-21.066406 21.050782-5.632812 0-10.742187-2.203125-14.53125-5.820313 11.410156-.246093 20.585938-9.566406 20.585938-21.035156 0-6.011719-2.511719-11.414063-6.53125-15.246094.160156-.015625.316406-.015625.476562-.015625 11.644532 0 21.066406 9.425782 21.066406 21.066406zm0 0" fill="#ffb509"/><path d="m54.769531 28.792969c-12.140625 0-22.015625 9.875-22.015625 22.015625 0 12.136718 9.875 22.011718 22.015625 22.011718 12.136719 0 22.011719-9.875 22.011719-22.011718 0-12.140625-9.875-22.015625-22.011719-22.015625zm0 29.023437c-3.867187 0-7.011719-3.144531-7.011719-7.007812 0-3.867188 3.144532-7.011719 7.011719-7.011719 3.863281 0 7.011719 3.144531 7.011719 7.011719 0 3.863281-3.148438 7.007812-7.011719 7.007812zm0 0"/><path d="m110.816406 28.792969c-12.140625 0-22.015625 9.875-22.015625 22.015625 0 12.136718 9.878907 22.011718 22.015625 22.011718 12.136719 0 22.011719-9.875 22.011719-22.011718 0-12.140625-9.875-22.015625-22.011719-22.015625zm0 29.023437c-3.867187 0-7.011718-3.144531-7.011718-7.007812 0-3.867188 3.144531-7.011719 7.011718-7.011719 3.863282 0 7.011719 3.144531 7.011719 7.011719 0 3.863281-3.148437 7.007812-7.011719 7.007812zm0 0"/><path d="m166.863281 28.792969c-12.140625 0-22.015625 9.875-22.015625 22.015625 0 12.136718 9.875 22.011718 22.015625 22.011718 12.136719 0 22.011719-9.875 22.011719-22.011718 0-12.140625-9.875-22.015625-22.011719-22.015625zm0 29.023437c-3.867187 0-7.011719-3.144531-7.011719-7.007812 0-3.867188 3.144532-7.011719 7.011719-7.011719 3.863281 0 7.011719 3.144531 7.011719 7.011719 0 3.863281-3.144531 7.007812-7.011719 7.007812zm0 0"/><path d="m478.984375 0h-445.972656c-18.203125 0-33.011719 14.808594-33.011719 33.011719v445.972656c0 18.203125 14.808594 33.015625 33.011719 33.015625h445.972656c18.203125 0 33.015625-14.8125 33.015625-33.015625v-113.632813c0-4.144531-3.359375-7.503906-7.503906-7.503906-4.140625 0-7.5 3.359375-7.5 7.503906v113.632813c0 9.933594-8.078125 18.011719-18.011719 18.011719h-445.972656c-9.929688 0-18.007813-8.078125-18.007813-18.011719v-376.945313h481.992188v216.976563c0 4.140625 3.359375 7.5 7.503906 7.5 4.140625 0 7.5-3.359375 7.5-7.5v-286.003906c0-18.203125-14.808594-33.011719-33.015625-33.011719zm18.011719 87.035156h-481.992188v-54.023437c0-9.929688 8.078125-18.007813 18.007813-18.007813h445.972656c9.933594 0 18.011719 8.078125 18.011719 18.007813zm0 0"/><path d="m461.476562 154.929688c0-13.082032-10.640624-23.722657-23.71875-23.722657h-364.636718c-13.078125 0-23.71875 10.640625-23.71875 23.722657v44.0625c0 4.144531 3.359375 7.5 7.5 7.5 4.144531 0 7.503906-3.355469 7.503906-7.5v-44.0625c0-4.808594 3.910156-8.71875 8.714844-8.71875h364.636718c4.804688 0 8.714844 3.910156 8.714844 8.71875v137.320312c0 4.804688-3.910156 8.714844-8.714844 8.714844h-23.613281l-76.894531-86.660156c-2.246094-2.527344-5.46875-4.035157-8.851562-4.136719-3.378907-.113281-6.6875 1.210937-9.078126 3.601562l-40.730468 40.710938-54.867188-61.832031c-2.242187-2.53125-5.46875-4.039063-8.847656-4.140626-3.378906-.085937-6.6875 1.210938-9.082031 3.601563l-108.90625 108.855469h-23.765625c-4.804688 0-8.714844-3.910156-8.714844-8.714844v-45.921875c0-4.144531-3.359375-7.503906-7.503906-7.503906-4.140625 0-7.5 3.359375-7.5 7.503906v45.921875c0 13.078125 10.640625 23.71875 23.71875 23.71875h364.636718c13.078126 0 23.71875-10.640625 23.71875-23.71875zm-343.367187 146.035156 96.28125-96.234375 72.996094 82.265625c2.75 3.101562 7.492187 3.382812 10.589843.632812 3.097657-2.75 3.382813-7.492187.632813-10.589844l-10.042969-11.316406 39.351563-39.332031 66.171875 74.574219zm0 0"/><path d="m73.117188 336.972656c-13.078126 0-23.714844 10.636719-23.714844 23.710938v73.59375c0 13.078125 10.636718 23.714844 23.714844 23.714844h145.105468c13.074219 0 23.714844-10.636719 23.714844-23.714844v-73.59375c0-13.074219-10.640625-23.710938-23.714844-23.710938zm153.816406 23.710938v73.59375c0 4.804687-3.910156 8.710937-8.710938 8.710937h-145.105468c-4.804688 0-8.710938-3.90625-8.710938-8.710937v-73.59375c0-4.800782 3.90625-8.710938 8.710938-8.710938h145.105468c4.800782 0 8.710938 3.910156 8.710938 8.710938zm0 0"/><path d="m292.65625 336.972656c-13.078125 0-23.714844 10.636719-23.714844 23.710938v73.59375c0 13.078125 10.636719 23.714844 23.714844 23.714844h145.105469c13.074219 0 23.714843-10.636719 23.714843-23.714844v-73.59375c0-13.074219-10.640624-23.710938-23.714843-23.710938zm153.816406 23.710938v73.59375c0 4.804687-3.910156 8.710937-8.710937 8.710937h-145.105469c-4.804688 0-8.710938-3.90625-8.710938-8.710937v-73.59375c0-4.800782 3.90625-8.710938 8.710938-8.710938h145.105469c4.800781 0 8.710937 3.910156 8.710937 8.710938zm0 0"/><path d="m87.660156 380.273438h20.28125c4.144532 0 7.5-3.355469 7.5-7.5 0-4.144532-3.355468-7.503907-7.5-7.503907h-20.28125c-4.144531 0-7.503906 3.359375-7.503906 7.503907 0 4.144531 3.359375 7.5 7.503906 7.5zm0 0"/><path d="m87.660156 405.6875h10.546875c4.140625 0 7.5-3.355469 7.5-7.5s-3.359375-7.5-7.5-7.5h-10.546875c-4.144531 0-7.503906 3.355469-7.503906 7.5s3.359375 7.5 7.503906 7.5zm0 0"/><path d="m203.679688 390.6875h-28.003907c-4.144531 0-7.503906 3.355469-7.503906 7.5s3.359375 7.5 7.503906 7.5h28.003907c4.144531 0 7.5-3.355469 7.5-7.5s-3.355469-7.5-7.5-7.5zm0 0"/><path d="m133.667969 380.273438h68.011719c4.140624 0 7.5-3.355469 7.5-7.5 0-4.144532-3.359376-7.503907-7.5-7.503907h-68.011719c-4.144531 0-7.5 3.359375-7.5 7.503907 0 4.144531 3.355469 7.5 7.5 7.5zm0 0"/><path d="m201.679688 414.691406h-20.285157c-4.140625 0-7.5 3.355469-7.5 7.5 0 4.144532 3.359375 7.503906 7.5 7.503906h20.285157c4.140624 0 7.5-3.359374 7.5-7.503906 0-4.144531-3.359376-7.5-7.5-7.5zm0 0"/><path d="m155.671875 414.691406h-68.011719c-4.144531 0-7.503906 3.355469-7.503906 7.5 0 4.144532 3.359375 7.503906 7.503906 7.503906h68.011719c4.140625 0 7.5-3.359374 7.5-7.503906 0-4.144531-3.359375-7.5-7.5-7.5zm0 0"/><path d="m121.460938 405.6875h29.210937c4.140625 0 7.5-3.355469 7.5-7.5s-3.359375-7.5-7.5-7.5h-29.210937c-4.140626 0-7.5 3.355469-7.5 7.5s3.359374 7.5 7.5 7.5zm0 0"/><path d="m307.199219 380.273438h20.28125c4.144531 0 7.5-3.355469 7.5-7.5 0-4.144532-3.355469-7.503907-7.5-7.503907h-20.28125c-4.144531 0-7.503907 3.359375-7.503907 7.503907 0 4.144531 3.359376 7.5 7.503907 7.5zm0 0"/><path d="m307.199219 405.6875h10.546875c4.140625 0 7.5-3.355469 7.5-7.5s-3.359375-7.5-7.5-7.5h-10.546875c-4.144531 0-7.503907 3.355469-7.503907 7.5s3.359376 7.5 7.503907 7.5zm0 0"/><path d="m423.21875 390.6875h-28.003906c-4.144532 0-7.503906 3.355469-7.503906 7.5s3.359374 7.5 7.503906 7.5h28.003906c4.140625 0 7.5-3.355469 7.5-7.5s-3.359375-7.5-7.5-7.5zm0 0"/><path d="m353.207031 380.273438h68.011719c4.140625 0 7.5-3.355469 7.5-7.5 0-4.144532-3.359375-7.503907-7.5-7.503907h-68.011719c-4.144531 0-7.503906 3.359375-7.503906 7.503907 0 4.144531 3.359375 7.5 7.503906 7.5zm0 0"/><path d="m421.21875 414.691406h-20.285156c-4.140625 0-7.5 3.355469-7.5 7.5 0 4.144532 3.359375 7.503906 7.5 7.503906h20.285156c4.140625 0 7.5-3.359374 7.5-7.503906 0-4.144531-3.359375-7.5-7.5-7.5zm0 0"/><path d="m375.210938 414.691406h-68.011719c-4.144531 0-7.503907 3.355469-7.503907 7.5 0 4.144532 3.359376 7.503906 7.503907 7.503906h68.011719c4.140624 0 7.5-3.359374 7.5-7.503906 0-4.144531-3.359376-7.5-7.5-7.5zm0 0"/><path d="m341 405.6875h29.210938c4.140624 0 7.5-3.355469 7.5-7.5s-3.359376-7.5-7.5-7.5h-29.210938c-4.140625 0-7.5 3.355469-7.5 7.5s3.359375 7.5 7.5 7.5zm0 0"/><path d="m409.324219 186.78125c0-15.75-12.8125-28.566406-28.566407-28.566406-15.75 0-28.566406 12.816406-28.566406 28.566406 0 15.753906 12.816406 28.570312 28.566406 28.570312 15.753907 0 28.566407-12.816406 28.566407-28.570312zm-42.128907 0c0-7.480469 6.082032-13.5625 13.5625-13.5625 7.480469 0 13.566407 6.082031 13.566407 13.5625s-6.085938 13.566406-13.566407 13.566406c-7.480468 0-13.5625-6.085937-13.5625-13.566406zm0 0"/></svg>