<svg height="512pt" viewBox="0 -27 512 511" width="512pt" xmlns="http://www.w3.org/2000/svg"><path d="m475.3125 379.707031h-438.625v-277.476562c0-12.4375 10.082031-22.519531 22.515625-22.519531h393.59375c12.4375 0 22.519531 10.082031 22.519531 22.519531v277.476562zm0 0" fill="#e7e7e7"/><path d="m475.316406 102.230469v277.476562h-27.117187v-277.476562c0-12.441407-10.078125-22.519531-22.519531-22.519531h27.117187c12.429687 0 22.519531 10.078124 22.519531 22.519531zm0 0" fill="#cecece"/><path d="m435.828125 379.707031h-359.65625v-256.152343c0-4.578126 3.714844-8.292969 8.296875-8.292969h343.0625c4.582031 0 8.292969 3.714843 8.292969 8.292969v256.152343zm0 0" fill="#c9f0ff"/><path d="m435.828125 123.554688v256.152343h-26.3125v-256.152343c0-4.574219-3.714844-8.296876-8.300781-8.296876h26.3125c4.585937 0 8.300781 3.722657 8.300781 8.296876zm0 0" fill="#9ae7fd"/><path d="m479.914062 449.257812h-447.828124c-13.554688 0-24.542969-10.984374-24.542969-24.539062v-45.011719h496.910156v45.011719c.003906 13.554688-10.984375 24.539062-24.539063 24.539062zm0 0" fill="#838383"/><path d="m504.457031 379.707031v45.011719c0 13.550781-10.984375 24.542969-24.542969 24.542969h-22.429687c13.546875 0 24.53125-10.992188 24.53125-24.542969v-45.011719zm0 0" fill="#5a5a5a"/><path d="m272.09375 379.707031h-99.578125l11.757813 26.910157c.800781 1.832031 2.609374 3.015624 4.609374 3.015624h134.234376c2 0 3.808593-1.183593 4.609374-3.015624l11.757813-26.910157zm0 0" fill="#acacac"/><path d="m339.484375 379.707031-11.757813 26.90625c-.804687 1.832031-2.605468 3.019531-4.605468 3.019531h-16.222656c.160156-.25.3125-.515624.429687-.796874l12.726563-29.128907zm0 0" fill="#9c9c9c"/><path d="m371.976562 263.53125h-231.480468c-14.265625 0-25.832032-11.566406-25.832032-25.832031v-203.820313c0-14.269531 11.566407-25.835937 25.832032-25.835937h231.480468c14.265626 0 25.832032 11.566406 25.832032 25.835937v203.816406c0 14.269532-11.566406 25.835938-25.832032 25.835938zm0 0" fill="#e7e7e7"/><path d="m397.804688 33.875v203.824219c0 14.265625-11.558594 25.832031-25.828126 25.832031h-30.921874c14.261718 0 25.832031-11.566406 25.832031-25.832031v-203.824219c0-14.265625-11.570313-25.832031-25.832031-25.832031h30.921874c14.269532 0 25.828126 11.566406 25.828126 25.832031zm0 0" fill="#cecece"/><path d="m397.808594 78.46875h-283.144532v-44.589844c0-14.269531 11.566407-25.835937 25.832032-25.835937h231.480468c14.265626 0 25.832032 11.566406 25.832032 25.835937z" fill="#ff6b81"/><path d="m397.804688 33.875v44.597656h-30.917969v-44.597656c0-14.265625-11.570313-25.832031-25.832031-25.832031h30.921874c14.269532 0 25.828126 11.566406 25.828126 25.832031zm0 0" fill="#ff435f"/><path d="m276.050781 126.917969c0 11.097656-9 20.097656-20.097656 20.097656-11.101563 0-20.097656-9-20.097656-20.097656 0-11.101563 8.996093-20.097657 20.097656-20.097657 11.097656 0 20.097656 8.996094 20.097656 20.097657zm0 0" fill="#838383"/><path d="m299.601562 185.171875c0-25.621094-19.542968-46.390625-43.648437-46.390625-24.109375 0-43.648437 20.769531-43.648437 46.390625s19.539062 46.390625 43.648437 46.390625c24.105469 0 43.648437-20.769531 43.648437-46.390625zm0 0" fill="#ff6b81"/><path d="m299.605469 185.175781c0 25.617188-19.546875 46.390625-43.65625 46.390625-3.460938 0-6.820313-.421875-10.046875-1.238281 19.261718-4.816406 33.605468-23.207031 33.605468-45.152344 0-21.949219-14.34375-40.335937-33.605468-45.152343 3.230468-.816407 6.585937-1.238282 10.046875-1.238282 24.109375 0 43.65625 20.769532 43.65625 46.390625zm0 0" fill="#ff435f"/><path d="m299.601562 185.171875c0 25.621094-19.542968 46.390625-43.652343 46.390625v-5.199219c13.992187-7.722656 23.5625-23.269531 23.5625-41.191406 0-4.46875-.601563-8.800781-1.710938-12.898437h20.089844c.140625.507812.269531 1.027343.390625 1.546874.089844.390626.179688.78125.257812 1.183594.0625.257813.109376.507813.160157.769532.082031.398437.152343.796874.222656 1.199218.089844.539063.167969 1.070313.238281 1.609375.070313.480469.121094.960938.167969 1.449219.121094 1.152344.203125 2.300781.242187 3.472656.019532.546875.03125 1.109375.03125 1.667969zm0 0" fill="#ff435f"/><path d="m255.949219 172.277344v59.285156c24.105469 0 43.652343-20.769531 43.652343-46.390625 0-4.472656-.597656-8.804687-1.710937-12.894531zm0 0" fill="#e32929"/><path d="m299.605469 185.175781c0 25.617188-19.546875 46.390625-43.65625 46.390625v-5.203125c13.992187-7.722656 23.558593-23.265625 23.558593-41.1875 0-4.476562-.59375-8.800781-1.710937-12.894531h20.097656c.160157.582031.3125 1.175781.441407 1.769531.101562.441407.203124.882813.292968 1.335938.101563.523437.199219 1.039062.292969 1.570312v.019531c.089844.535157.171875 1.066407.238281 1.597657.070313.542969.144532 1.085937.191406 1.628906.050782.464844.09375.929687.121094 1.398437v.019532c.019532.253906.042969.503906.050782.757812.019531.371094.039062.742188.050781 1.125.019531.554688.03125 1.105469.03125 1.671875zm0 0" fill="#cb223b"/><path d="m255.953125 172.277344v59.285156c-24.105469 0-43.652344-20.769531-43.652344-46.390625 0-4.472656.597657-8.804687 1.710938-12.894531zm0 0" fill="#e32929"/><path d="m504.457031 372.160156h-21.597656v-269.929687c0-16.578125-13.488281-30.066407-30.0625-30.066407h-47.441406v-38.285156c0-18.40625-14.972657-33.378906-33.378907-33.378906h-68.953124c-4.167969 0-7.546876 3.378906-7.546876 7.542969 0 4.167969 3.378907 7.546875 7.546876 7.546875h68.953124c10.085938 0 18.289063 8.203125 18.289063 18.289062v37.046875h-268.058594v-37.046875c0-10.085937 8.203125-18.289062 18.289063-18.289062h115.453125c4.167969 0 7.542969-3.378906 7.542969-7.546875 0-4.164063-3.375-7.542969-7.542969-7.542969h-115.453125c-18.402344 0-33.375 14.972656-33.375 33.378906v38.285156h-47.917969c-16.574219 0-30.0625 13.488282-30.0625 30.066407v269.933593h-21.597656c-4.164063 0-7.542969 3.375-7.542969 7.542969v45.011719c0 17.691406 14.394531 32.085938 32.085938 32.085938h447.828124c17.691407 0 32.085938-14.394532 32.085938-32.085938v-45.011719c0-4.167969-3.378906-7.546875-7.542969-7.546875zm-99.101562-284.90625h47.441406c8.257813 0 14.972656 6.71875 14.972656 14.976563v269.933593h-24.398437v-248.609374c0-8.730469-7.105469-15.835938-15.839844-15.835938h-22.175781zm-264.859375 183.820313h23.46875c4.167968 0 7.542968-3.375 7.542968-7.542969s-3.375-7.542969-7.542968-7.542969h-23.46875c-10.082032 0-18.285156-8.207031-18.285156-18.289062v-151.6875h268.054687v151.6875c0 10.082031-8.203125 18.289062-18.289063 18.289062h-159.675781c-4.164062 0-7.542969 3.375-7.542969 7.542969s3.378907 7.542969 7.542969 7.542969h159.675781c18.40625 0 33.378907-14.972657 33.378907-33.375v-114.894531h22.175781c.414062 0 .75.335937.75.75v248.605468h-344.5625v-248.605468c0-.414063.335938-.75.75-.75h22.652344v114.894531c0 18.402343 14.972656 33.375 33.375 33.375zm187.460937 116.175781-6.484375 14.835938h-130.945312l-6.484375-14.835938zm-283.726562-285.019531c0-8.257813 6.714843-14.976563 14.972656-14.976563h47.917969v20.464844h-22.652344c-8.734375 0-15.839844 7.105469-15.839844 15.835938v248.605468h-24.398437zm452.679687 322.488281c0 9.371094-7.621094 16.996094-16.996094 16.996094h-447.828124c-9.375 0-16.996094-7.625-16.996094-16.996094v-37.46875h152.488281l9.78125 22.386719c2 4.578125 6.523437 7.539062 11.519531 7.539062h134.238282c5 0 9.523437-2.960937 11.519531-7.539062l9.785156-22.386719h152.488281zm0 0"/><path d="m115.808594 312.316406h102.34375c4.167968 0 7.546875-3.378906 7.546875-7.546875 0-4.164062-3.378907-7.542969-7.546875-7.542969h-102.34375c-4.164063 0-7.542969 3.378907-7.542969 7.542969 0 4.167969 3.378906 7.546875 7.542969 7.546875zm0 0"/><path d="m245.820312 312.316406h42.472657c4.167969 0 7.542969-3.378906 7.542969-7.546875 0-4.164062-3.375-7.542969-7.542969-7.542969h-42.472657c-4.167968 0-7.542968 3.378907-7.542968 7.542969 0 4.167969 3.375 7.546875 7.542968 7.546875zm0 0"/><path d="m316.230469 312.316406h79.960937c4.164063 0 7.542969-3.378906 7.542969-7.546875 0-4.164062-3.378906-7.542969-7.542969-7.542969h-79.960937c-4.167969 0-7.546875 3.378907-7.546875 7.542969 0 4.167969 3.378906 7.546875 7.546875 7.546875zm0 0"/><path d="m115.808594 343.222656h51.394531c4.167969 0 7.542969-3.375 7.542969-7.542968 0-4.167969-3.375-7.542969-7.542969-7.542969h-51.394531c-4.164063 0-7.542969 3.375-7.542969 7.542969 0 4.167968 3.378906 7.542968 7.542969 7.542968zm0 0"/><path d="m316.230469 328.136719h-113.101563c-4.167968 0-7.542968 3.375-7.542968 7.542969 0 4.167968 3.375 7.542968 7.542968 7.542968h113.101563c4.167969 0 7.542969-3.375 7.542969-7.542968 0-4.167969-3.378907-7.542969-7.542969-7.542969zm0 0"/><path d="m396.191406 328.136719h-56.707031c-4.164063 0-7.542969 3.375-7.542969 7.542969 0 4.167968 3.378906 7.542968 7.542969 7.542968h56.707031c4.164063 0 7.542969-3.375 7.542969-7.542968 0-4.167969-3.378906-7.542969-7.542969-7.542969zm0 0"/><path d="m181.710938 209.046875c.820312.285156 1.65625.417969 2.480468.417969 3.121094 0 6.039063-1.949219 7.125-5.0625l2.242188-6.441406 12.5625-.464844c.445312 2 .988281 3.960937 1.640625 5.867187l-9.128907 6.941407c-1.578124 1.199218-2.617187 2.96875-2.902343 4.925781l-2.207031 15.25c-.597657 4.125 2.257812 7.953125 6.382812 8.550781.367188.050781.730469.078125 1.089844.078125 3.691406 0 6.914062-2.707031 7.457031-6.464844l1.765625-12.199219 4.46875-3.394531c9.328125 13.363281 24.34375 22.054688 41.261719 22.058594 16.9375 0 31.96875-8.71875 41.292969-22.105469l4.53125 3.445313 1.765624 12.195312c.546876 3.757813 3.769532 6.464844 7.457032 6.464844.359375 0 .726562-.023437 1.09375-.078125 4.121094-.597656 6.980468-4.425781 6.382812-8.546875l-2.207031-15.253906c-.285156-1.957031-1.328125-3.726563-2.902344-4.921875l-9.207031-7c.644531-1.894532 1.179688-3.835938 1.621094-5.816406l12.660156.472656 2.242188 6.4375c1.085937 3.113281 4.003906 5.066406 7.125 5.066406.824218 0 1.660156-.136719 2.480468-.421875 3.933594-1.371094 6.015625-5.671875 4.644532-9.605469l-3.9375-11.304687c-1.019532-2.933594-3.738282-4.941407-6.84375-5.058594l-17.074219-.636719c-.003907-.125-.019531-.25-.023438-.375-.023437-.402344-.046875-.800781-.078125-1.199218l14.117188-6.351563c3.261718-1.46875 5.046875-5.023437 4.269531-8.515625l-3.441406-15.484375c-.902344-4.070313-4.925781-6.636719-9-5.730469-4.066407.90625-6.632813 4.933594-5.726563 9l2.105469 9.492188-5.589844 2.515625c-4.289062-11.6875-12.328125-21.410157-22.5625-27.535157 1.5625-3.460937 2.441407-7.296874 2.441407-11.335937 0-15.242187-12.398438-27.640625-27.640626-27.640625-15.242187 0-27.640624 12.398438-27.640624 27.640625 0 4.039063.890624 7.867187 2.457031 11.324219-10.230469 6.117187-18.269531 15.835937-22.5625 27.511718l-5.507813-2.480468 2.105469-9.492188c.90625-4.066406-1.660156-8.09375-5.726563-9-4.066406-.90625-8.097656 1.660156-9 5.730469l-3.441406 15.484375c-.777344 3.492188 1.007813 7.050781 4.269532 8.515625l14.023437 6.308594c-.03125.441406-.058594.882812-.082031 1.324219-.003906.097656-.015625.199218-.019532.300781l-16.980468.628906c-3.105469.117187-5.820313 2.125-6.84375 5.058594l-3.9375 11.304687c-1.363282 3.933594.714844 8.234375 4.652344 9.605469zm109.996093-29.226563c.019531.148438.035157.296876.050781.441407.070313.597656.128907 1.191406.171876 1.792969.019531.234374.039062.46875.050781.707031.222656 3.941406-.066407 7.914062-.960938 11.761719-.910156 3.910156-2.132812 7.09375-3.992187 10.414062-.289063.511719-.59375 1.03125-.914063 1.554688-1.066406 1.742187-2.03125 3.089843-3.34375 4.65625-4.582031 5.480468-10.859375 9.734374-17.785156 11.640624-.070313.019532-.140625.03125-.210937.050782-.421876.117187-.847657.222656-1.277344.320312v-43.339844zm-35.753906-65.457031c6.921875 0 12.550781 5.632813 12.550781 12.554688 0 2.027343-.492187 3.9375-1.351562 5.636719-3.609375-.851563-7.351563-1.316407-11.203125-1.316407-3.847657 0-7.589844.464844-11.199219 1.316407-.855469-1.699219-1.351562-3.609376-1.351562-5.636719 0-6.921875 5.632812-12.554688 12.554687-12.554688zm0 31.960938c12.941406 0 24.308594 7.371093 30.683594 18.410156h-61.371094c6.375-11.039063 17.746094-18.410156 30.6875-18.410156zm-35.972656 35.652343c.039062-.542968.089843-1.085937.15625-1.625.019531-.175781.039062-.355468.0625-.53125h28.207031v43.339844c-.449219-.101562-.894531-.214844-1.339844-.335937-.046875-.011719-.09375-.019531-.140625-.035157-3.785156-1.050781-6.429687-2.261718-9.738281-4.441406-10.886719-7.164062-17.34375-20.234375-17.339844-33.175781 0-1.074219.050782-2.125.132813-3.195313zm0 0"/><path d="m150.597656 36.980469c-.414062-.269531-.847656-.5-1.308594-.691407-.453124-.191406-.925781-.332031-1.410156-.433593-.964844-.191407-1.96875-.191407-2.945312 0-.484375.101562-.957032.242187-1.410156.433593-.460938.191407-.894532.421876-1.304688.691407-.414062.273437-.796875.59375-1.148438.9375-1.292968 1.261719-2.203124 3.503906-2.203124 5.339843 0 4.234376 3.40625 7.546876 7.542968 7.546876 1.984375 0 3.925782-.804688 5.332032-2.214844.34375-.34375.664062-.734375.9375-1.144532.554687-.839843.921874-1.734374 1.125-2.71875.398437-1.921874-.046876-4.027343-1.125-5.660156-.472657-.71875-1.394532-1.632812-2.082032-2.085937zm0 0"/><path d="m175.402344 36.289062c-.453125-.191406-.9375-.332031-1.410156-.433593-.976563-.191407-1.980469-.191407-2.957032 0-.472656.101562-.957031.242187-1.40625.433593-1.628906.683594-3.066406 2.050782-3.855468 3.621094-1.414063 2.820313-.886719 6.453125 1.410156 8.679688.339844.351562.734375.664062 1.144531.933594.402344.273437.847656.515624 1.300781.695312.933594.375 1.914063.550781 2.886719.546875 1.957031-.011719 3.878906-.765625 5.328125-2.175781 1.140625-1.109375 1.898438-2.628906 2.140625-4.203125.289063-1.886719-.109375-3.738281-1.195313-5.324219-.804687-1.179688-2.085937-2.222656-3.386718-2.773438zm0 0"/><path d="m206.019531 41.78125c-.195312-.9375-.621093-1.949219-1.128906-2.71875-.511719-.78125-1.292969-1.566406-2.082031-2.082031-.410156-.269531-.855469-.503907-1.304688-.691407-.453125-.191406-.925781-.332031-1.410156-.433593-.976562-.191407-1.980469-.191407-2.945312 0-1.472657.308593-2.8125 1.011719-3.863282 2.0625-2.550781 2.550781-2.894531 6.546875-.9375 9.523437 1.324219 2.015625 3.859375 3.359375 6.269532 3.359375 1.988281 0 3.929687-.804687 5.339843-2.210937 1.699219-1.699219 2.554688-4.4375 2.0625-6.808594zm0 0"/></svg>